<?xml version="1.0" standalone="no"?>
<!DOCTYPE svg PUBLIC "-//W3C//DTD SVG 1.1//EN" "http://www.w3.org/Graphics/SVG/1.1/DTD/svg11.dtd" >
<svg xmlns="http://www.w3.org/2000/svg" xmlns:xlink="http://www.w3.org/1999/xlink" version="1.1">
<metadata>
Created by FontForge 20170731 at Wed Oct 10 22:17:51 2001
 By Aleksey,,,
Copyright 1990-2001 Bitstream Inc. All rights reserved.
</metadata>
<defs>
<font id="News701BT-ItalicA" horiz-adv-x="1706" >
  <font-face 
    font-family="News701 BT"
    font-weight="400"
    font-style="italic"
    font-stretch="normal"
    units-per-em="2048"
    panose-1="2 4 6 3 4 5 5 9 2 4"
    ascent="1556"
    descent="-492"
    x-height="1133"
    cap-height="1475"
    bbox="-406 -483 2609 1978"
    underline-thickness="133"
    underline-position="-386"
    slope="-14.5"
    unicode-range="U+0020-F002"
  />
<missing-glyph horiz-adv-x="1229" 
d="M102 -362v1806h1024v-1806h-1024zM217 -248h795v1577h-795v-1577z" />
    <glyph glyph-name=".notdef" horiz-adv-x="1229" 
d="M102 -362v1806h1024v-1806h-1024zM217 -248h795v1577h-795v-1577z" />
    <glyph glyph-name=".null" horiz-adv-x="0" 
 />
    <glyph glyph-name="nonmarkingreturn" horiz-adv-x="557" 
 />
    <glyph glyph-name="space" unicode=" " horiz-adv-x="557" 
 />
    <glyph glyph-name="exclam" unicode="!" horiz-adv-x="807" 
d="M242 381q62 254 108.5 583t67.5 400q21 72 57 107.5t88 35.5q55 0 91 -39t36 -98q0 -78 -142 -414.5t-224 -599.5zM76 100q0 59 39.5 99.5t97.5 40.5t98.5 -40.5t40.5 -99.5q0 -58 -40.5 -98.5t-98.5 -40.5t-97.5 40.5t-39.5 98.5z" />
    <glyph glyph-name="quotedbl" unicode="&#x22;" horiz-adv-x="686" 
d="M526 860h-34l-70 459q-1 7 -1.5 14.5t-0.5 22.5q0 51 22.5 78.5t65.5 27.5q42 0 66 -27t24 -75q0 -16 -0.5 -24.5t-1.5 -16.5zM195 860h-35l-70 459q-2 17 -3 26t-1 15q0 48 24 75t66 27q44 0 67 -27.5t23 -78.5q0 -16 -0.5 -23.5t-1.5 -14.5z" />
    <glyph glyph-name="numbersign" unicode="#" horiz-adv-x="1575" 
d="M702 864l-98 -276h283l96 276h-281zM760 1458h155l-161 -454h276l162 454h156l-162 -454h301l-49 -140h-301l-97 -276h320l-49 -139h-320l-162 -453h-155l162 453h-279l-162 -453h-153l159 453h-313l51 139h312l98 276h-336l51 140h334z" />
    <glyph glyph-name="dollar" unicode="$" horiz-adv-x="1114" 
d="M238 -313l77 301q-140 46 -215 128t-75 187q0 86 40 135t111 49q54 0 89.5 -34t35.5 -86q0 -27 -10 -50t-29 -43q-15 -14 -46.5 -29.5t-31.5 -25.5q0 -22 48 -58t114 -57l131 510q-143 96 -212.5 197t-69.5 213q0 162 123.5 263.5t324.5 101.5h33l53 198h92l-53 -215
q130 -35 202 -111.5t72 -179.5q0 -77 -37 -118t-106 -41q-55 0 -90 32t-35 84q0 55 48 96.5t48 45.5q0 28 -37.5 55t-95.5 37l-123 -486q177 -116 251.5 -219t74.5 -225q0 -171 -124 -274t-331 -103q-24 0 -76 4h-6l-71 -282h-94zM434 84h29q125 0 200.5 59t75.5 154
q0 60 -45 125.5t-137 138.5zM537 846l114 432h-10q-119 0 -190.5 -59.5t-71.5 -157.5q0 -64 38.5 -116t119.5 -99z" />
    <glyph glyph-name="percent" unicode="%" horiz-adv-x="1878" 
d="M1712 532q0 85 -38 136t-99 51q-57 0 -119.5 -58.5t-118.5 -164.5q-43 -81 -67.5 -167.5t-24.5 -152.5q0 -64 34.5 -99.5t94.5 -35.5q56 0 112.5 35.5t104.5 101.5q56 75 88.5 171t32.5 183zM1782 524q0 -85 -22 -162.5t-68 -154.5q-72 -121 -162.5 -183.5t-192.5 -62.5
q-122 0 -198 83t-76 218q0 99 39 196.5t110 176.5q72 79 154 121.5t164 42.5q123 0 187.5 -70.5t64.5 -204.5zM737 1298q-40 24 -79 50.5t-76 56.5q-75 -34 -136 -108.5t-110 -190.5q-28 -64 -44 -130t-16 -118q0 -63 35.5 -99t96.5 -36q66 0 132 51.5t119 145.5
q41 69 62.5 146.5t21.5 154.5q0 20 -1.5 38.5t-4.5 38.5zM1341 1522h97l-875 -1579h-121l772 1392q-64 -42 -128 -65t-121 -23q-38 0 -75.5 7t-78.5 21q1 -8 1.5 -20.5t0.5 -35.5q0 -87 -23 -171t-69 -161q-70 -120 -161 -183t-193 -63q-124 0 -200.5 82.5t-76.5 216.5
q0 97 40 195t112 178q73 79 153.5 121.5t157.5 42.5q71 0 126 -26.5t122 -94.5q46 -18 84.5 -26.5t70.5 -8.5q103 0 203.5 52.5t181.5 148.5z" />
    <glyph glyph-name="ampersand" unicode="&#x26;" horiz-adv-x="1872" 
d="M625 791q-137 -32 -216 -129.5t-79 -233.5q0 -151 89.5 -243.5t237.5 -92.5q50 0 101.5 12.5t103.5 36.5q-93 145 -151.5 304t-85.5 346zM815 963q149 41 233.5 119.5t84.5 172.5q0 60 -37.5 97t-98.5 37q-92 0 -142 -70.5t-50 -200.5q0 -31 2.5 -70.5t7.5 -84.5zM944 53
q-88 -47 -180 -69.5t-197 -22.5q-217 0 -348 118.5t-131 315.5q0 186 131 309t395 185q-3 28 -4.5 55.5t-1.5 52.5q0 230 110.5 370t289.5 140q116 0 189 -65.5t73 -169.5q0 -130 -115 -239t-326 -179q20 -155 72 -306t135 -296q126 101 193 188.5t67 151.5q0 35 -40.5 56.5
t-127.5 31.5v133h586v-133q-81 -11 -137 -40t-94 -79l-19 -25q-186 -253 -354 -382q32 -35 68 -51.5t82 -16.5q59 0 122.5 33.5t135.5 101.5l84 -69q-79 -98 -170.5 -144.5t-204.5 -46.5q-86 0 -156 23t-127 69z" />
    <glyph glyph-name="quotesingle" unicode="'" horiz-adv-x="352" 
d="M195 860h-35l-70 459q0 2 -1 8q-3 20 -3 29q0 50 23.5 78t66.5 28q42 0 66 -27t24 -75q0 -7 -0.5 -15t-3.5 -27z" />
    <glyph glyph-name="parenleft" unicode="(" horiz-adv-x="948" 
d="M922 1456q-230 -199 -341.5 -485t-111.5 -674q0 -170 35 -307.5t102 -233.5l-43 -49q-124 179 -187 378.5t-63 414.5q0 305 141.5 554t430.5 453z" />
    <glyph glyph-name="parenright" unicode=")" horiz-adv-x="948" 
d="M6 -242q229 199 341 485t112 675q0 170 -35 307.5t-102 232.5l43 49q124 -179 186.5 -378.5t62.5 -413.5q0 -306 -141 -554.5t-430 -453.5z" />
    <glyph glyph-name="asterisk" unicode="*" horiz-adv-x="1024" 
d="M621 1059v-6q0 -83 42 -176.5t42 -118.5q0 -41 -28 -66.5t-73 -25.5q-46 0 -72 24.5t-26 67.5q0 27 41 118.5t41 172.5v13q-8 -5 -25 -17q-69 -50 -109 -108l-7 -10q-73 -106 -132 -106q-33 0 -63.5 35t-30.5 74q0 38 31.5 65.5t76.5 30.5q11 1 29 2q139 10 213 59
q-86 52 -214 59q-12 0 -20 1q-52 5 -84 32t-32 66q0 41 29.5 74t64.5 33q59 0 124 -96q9 -12 14 -19q27 -39 58 -67t79 -56v6q0 82 -41 176t-41 119q0 42 27 67t71 25q46 0 72.5 -24.5t26.5 -67.5q0 -27 -41 -118t-41 -171v-16q6 5 19 14q71 52 114 111q4 6 12 17
q71 100 127 100q34 0 64 -34.5t30 -74.5q0 -37 -32 -65t-76 -31q-9 -1 -24 -2q-144 -10 -218 -62q84 -49 205 -56q14 0 22 -1q56 -4 88.5 -30.5t32.5 -67.5q0 -40 -28.5 -73.5t-63.5 -33.5q-59 0 -124 96q-9 12 -13 19q-27 39 -58 67t-79 56z" />
    <glyph glyph-name="plus" unicode="+" 
d="M782 1221h142v-541h528v-139h-528v-541h-142v541h-528v139h528v541z" />
    <glyph glyph-name="comma" unicode="," horiz-adv-x="557" 
d="M206 -35q-13 -3 -26 -4.5t-24 -1.5q-57 0 -88 33t-31 94q0 65 40.5 105t104.5 40q70 0 111 -49t41 -133q0 -134 -103 -245.5t-286 -174.5v82q108 52 173.5 115.5t87.5 138.5z" />
    <glyph glyph-name="hyphen" unicode="-" horiz-adv-x="692" 
d="M8 483l55 172h537l-53 -172h-539z" />
    <glyph glyph-name="period" unicode="." horiz-adv-x="557" 
d="M33 100q0 59 40.5 99.5t98.5 40.5t97.5 -40.5t39.5 -99.5q0 -58 -40 -98.5t-97 -40.5t-98 41t-41 98z" />
    <glyph glyph-name="slash" unicode="/" horiz-adv-x="588" 
d="M72 -190h-129l536 1697h129z" />
    <glyph glyph-name="zero" unicode="0" horiz-adv-x="1114" 
d="M283 297q0 -105 39 -161t112 -56q75 0 130.5 72t113.5 254q72 222 114 436.5t42 341.5q0 103 -35.5 156t-104.5 53t-126 -72.5t-117 -241.5q-78 -217 -123 -432.5t-45 -349.5zM434 -39q-165 0 -261.5 136.5t-96.5 373.5q0 215 66.5 428.5t185.5 380.5q81 114 173.5 171.5
t192.5 57.5q164 0 255 -125t91 -350q0 -196 -39.5 -375t-117.5 -337q-87 -176 -202 -268.5t-247 -92.5z" />
    <glyph glyph-name="one" unicode="1" horiz-adv-x="1114" 
d="M780 0h-739l29 119l68 4q93 7 138 42t70 128l174 659q12 44 18.5 83t6.5 63q0 26 -25.5 39.5t-75.5 13.5h-172l32 119q136 4 248.5 62t213.5 175h102l-313 -1214q-5 -19 -7.5 -39t-2.5 -41q0 -42 35 -64.5t104 -25.5l125 -4z" />
    <glyph glyph-name="two" unicode="2" horiz-adv-x="1114" 
d="M-16 0q2 172 85 315t326 355q23 20 68 58q291 248 291 421q0 108 -58.5 172.5t-154.5 64.5q-52 0 -83.5 -19.5t-31.5 -51.5q0 -5 20.5 -46t20.5 -79q0 -55 -41 -92t-104 -37q-67 0 -107.5 42.5t-40.5 110.5q0 120 113.5 206.5t277.5 86.5q192 0 315.5 -109t123.5 -280
q0 -125 -71.5 -222t-303.5 -247q-241 -155 -338 -253.5t-125 -200.5h375q76 0 105.5 20.5t70.5 93.5l37 66h123l-129 -375h-764z" />
    <glyph glyph-name="three" unicode="3" horiz-adv-x="1114" 
d="M383 872h29q166 0 261 82.5t95 225.5q0 102 -47 159.5t-131 57.5q-40 0 -67 -15t-27 -34q0 -10 14 -39t14 -49q0 -59 -36 -93t-99 -34q-67 0 -105 36t-38 101q0 102 95.5 169.5t244.5 67.5q187 0 298 -96.5t111 -259.5q0 -141 -95.5 -228t-289.5 -122q137 -39 207 -128.5
t70 -228.5q0 -205 -142 -342t-356 -137q-164 0 -267.5 78.5t-103.5 200.5q0 78 42 128t106 50q66 0 106.5 -37.5t40.5 -95.5q0 -74 -76 -123q-20 -13 -20 -19q0 -23 45 -46t103 -23q120 0 202 119t82 299q0 122 -65 181.5t-199 59.5h-27z" />
    <glyph glyph-name="four" unicode="4" horiz-adv-x="1114" 
d="M618 551l179 686l-619 -686h440zM967 0h-717l31 119h59q103 0 143.5 30.5t69.5 143.5l22 90h-575v135l889 989h168l-246 -956h242l-43 -168h-242l-25 -91q-7 -26 -10.5 -52t-3.5 -50q0 -40 28 -55.5t105 -15.5h135z" />
    <glyph glyph-name="five" unicode="5" horiz-adv-x="1114" 
d="M303 698l-123 64l185 713h628l-49 -191h-500l-104 -418q64 55 123.5 80t124.5 25q157 0 254.5 -114t97.5 -300q0 -260 -156.5 -428t-396.5 -168q-162 0 -260 77.5t-98 203.5q0 80 41 130t106 50q66 0 107 -37.5t41 -95.5q0 -74 -76 -123q-21 -13 -21 -19q0 -22 46 -45.5
t104 -23.5q134 0 233 152t99 368q0 109 -48.5 175.5t-125.5 66.5q-57 0 -112.5 -34t-119.5 -108z" />
    <glyph glyph-name="six" unicode="6" horiz-adv-x="1114" 
d="M395 834q62 48 122 71t122 23q146 0 238 -111t92 -291q0 -239 -143 -402t-349 -163q-180 0 -282.5 136t-102.5 376q0 216 71 425.5t199 373.5q92 116 197 175.5t217 59.5q131 0 212 -66t81 -171q0 -73 -41.5 -115.5t-112.5 -42.5q-56 0 -92.5 34t-36.5 87q0 73 76 111
q8 4 8 6q0 14 -32 32.5t-68 18.5q-117 0 -221.5 -155.5t-153.5 -411.5zM473 74q115 0 188.5 149t73.5 387q0 97 -42 151t-115 54q-56 0 -105.5 -37t-83.5 -104q-43 -86 -66.5 -183.5t-23.5 -189.5q0 -114 43.5 -170.5t130.5 -56.5z" />
    <glyph glyph-name="seven" unicode="7" horiz-adv-x="1114" 
d="M276 991h-116l133 484h833v-162l-54 -79q-465 -671 -490 -945q-3 -28 -5 -82q-5 -131 -38 -182q-21 -32 -52 -48t-71 -16q-73 0 -111.5 45.5t-38.5 130.5q0 210 505 881q128 170 198 264h-408q-122 0 -163.5 -35t-78.5 -135z" />
    <glyph glyph-name="eight" unicode="8" horiz-adv-x="1114" 
d="M444 776q-76 100 -113.5 188t-37.5 169q0 159 112 266.5t279 107.5q172 0 274.5 -85.5t102.5 -227.5q0 -125 -89 -215.5t-284 -163.5q112 -132 165.5 -240.5t53.5 -201.5q0 -181 -123 -296.5t-317 -115.5q-187 0 -298.5 98.5t-111.5 264.5q0 148 92.5 256.5t294.5 195.5z
M639 883q119 70 176 150t57 175q0 83 -49 134t-129 51q-82 0 -134 -56.5t-52 -146.5q0 -72 32.5 -148t98.5 -159zM496 707q-134 -96 -189 -178t-55 -183q0 -119 61.5 -191.5t159.5 -72.5q93 0 151 66.5t58 173.5q0 80 -37 161t-149 224z" />
    <glyph glyph-name="nine" unicode="9" horiz-adv-x="1114" 
d="M629 1395q-115 0 -188.5 -149t-73.5 -388q0 -96 41.5 -150.5t115.5 -54.5q57 0 107.5 37.5t83.5 104.5q42 84 65 182t23 192q0 114 -43.5 170t-130.5 56zM709 635q-62 -48 -122.5 -71t-123.5 -23q-146 0 -238 111t-92 290q0 239 143.5 402t350.5 163q179 0 281 -135.5
t102 -376.5q0 -216 -71 -425.5t-200 -372.5q-92 -117 -195.5 -176.5t-215.5 -59.5q-131 0 -212 66t-81 172q0 72 41.5 114.5t111.5 42.5q56 0 91.5 -33.5t35.5 -86.5q0 -74 -73 -111q-9 -5 -9 -6q0 -15 31.5 -33t67.5 -18q118 0 223 156t154 411z" />
    <glyph glyph-name="colon" unicode=":" horiz-adv-x="606" 
d="M233 989q0 54 38 91.5t91 37.5q55 0 93.5 -37.5t38.5 -91.5t-39 -92.5t-93 -38.5t-91.5 38t-37.5 93zM-10 92q0 54 38.5 92.5t92.5 38.5q53 0 91 -38.5t38 -92.5t-38 -92.5t-91 -38.5q-55 0 -93 38t-38 93z" />
    <glyph glyph-name="semicolon" unicode=";" horiz-adv-x="606" 
d="M133 -35q-14 -3 -27 -4.5t-24 -1.5q-57 0 -88 33t-31 94q0 65 40.5 105t105.5 40q69 0 110 -49t41 -133q0 -134 -103 -245.5t-286 -174.5v82q109 52 174 115.5t88 138.5zM233 989q0 54 38 91.5t91 37.5q55 0 93.5 -37.5t38.5 -91.5t-39 -92.5t-93 -38.5t-91.5 38
t-37.5 93z" />
    <glyph glyph-name="less" unicode="&#x3c;" 
d="M1442 1159v-153l-969 -396l969 -393v-154l-1178 484v129z" />
    <glyph glyph-name="equal" unicode="=" 
d="M254 481h1198v-139h-1198v139zM254 879h1198v-140h-1198v140z" />
    <glyph glyph-name="greater" unicode="&#x3e;" 
d="M264 1159l1178 -483v-129l-1178 -484v154l971 393l-971 396v153z" />
    <glyph glyph-name="question" unicode="?" horiz-adv-x="1067" 
d="M217 100q0 59 40.5 99.5t98.5 40.5t98 -40.5t40 -99.5q0 -58 -40.5 -98.5t-97.5 -40.5t-98 41t-41 98zM457 352l-92 21q17 159 77.5 276t202.5 248l6 6q146 135 146 281q0 96 -61.5 155.5t-160.5 59.5q-68 0 -120 -29.5t-52 -62.5q0 -5 40 -48.5t40 -101.5
q0 -54 -36.5 -86.5t-98.5 -32.5q-66 0 -102.5 42t-36.5 118q0 128 110.5 218.5t270.5 90.5q179 0 294 -103t115 -263q0 -109 -51.5 -192t-173.5 -167q-13 -8 -40 -26q-105 -66 -154 -123q-42 -48 -72.5 -117t-50.5 -164z" />
    <glyph glyph-name="at" unicode="@" horiz-adv-x="2019" 
d="M1186 332q-62 -105 -138 -156t-169 -51q-129 0 -206 92t-77 246q0 109 49.5 216t140.5 195q68 65 146 99.5t155 34.5q90 0 146 -48.5t76 -142.5l51 174h158l-172 -612l-4 -12q-15 -56 -15 -86q0 -51 23.5 -79t66.5 -28q33 0 80.5 20t89.5 52q119 90 179.5 228.5
t60.5 318.5q0 133 -52.5 245t-156.5 201q-90 77 -214 118.5t-267 41.5q-180 0 -335.5 -61.5t-275.5 -180.5q-126 -124 -190 -287t-64 -358q0 -182 57 -313t179 -234q109 -92 254 -141t307 -49q170 0 327 51.5t300 155.5l33 -41q-147 -110 -312.5 -166t-345.5 -56
q-189 0 -345.5 45.5t-274.5 135.5q-151 113 -230.5 276.5t-79.5 360.5q0 203 86.5 380.5t251.5 313.5q134 111 294.5 167t342.5 56q346 0 555 -188.5t209 -499.5q0 -159 -58.5 -298t-166.5 -237q-59 -52 -126 -80t-134 -28q-96 0 -149 53t-60 156zM1104 961
q-54 0 -98.5 -30.5t-90.5 -99.5q-71 -107 -113 -233.5t-42 -228.5q0 -86 39.5 -138.5t101.5 -52.5q65 0 122.5 43.5t111.5 132.5q55 93 88.5 204t33.5 198q0 92 -42 148.5t-111 56.5z" />
    <glyph glyph-name="A" unicode="A" horiz-adv-x="1622" 
d="M563 643h461l-98 635zM1284 332q19 -119 63 -155.5t158 -43.5l-35 -133h-626l33 133q120 9 160 35t40 86q0 19 -2.5 45t-7.5 59l-23 152h-559l-108 -211q-13 -25 -21 -51t-8 -41q0 -39 41 -55.5t149 -18.5l-32 -133h-543l35 133q66 14 111 50.5t98 125.5l667 1166h230z
" />
    <glyph glyph-name="B" unicode="B" horiz-adv-x="1575" 
d="M555 705l-100 -385q-2 -6 -4 -16q-13 -52 -13 -77q0 -56 52 -79t188 -23q199 0 306.5 84.5t107.5 241.5q0 119 -80.5 186.5t-225.5 67.5h-231zM672 1155l-84 -317h170q224 0 335 75t111 226q0 106 -70 160.5t-206 54.5q-117 0 -172 -43.5t-84 -155.5zM0 0l33 133h18
q69 0 103 26.5t51 94.5l235 901q6 24 9.5 49.5t3.5 50.5q0 47 -37 66.5t-127 19.5h-19l33 134h612q146 0 220.5 -10t128.5 -33q88 -39 139 -117.5t51 -175.5q0 -155 -111.5 -249.5t-326.5 -121.5q164 -40 248 -129t84 -223q0 -99 -46.5 -184t-127.5 -136q-83 -52 -185.5 -74
t-312.5 -22h-676z" />
    <glyph glyph-name="C" unicode="C" horiz-adv-x="1554" 
d="M1319 854v14q0 246 -104 376t-300 130q-99 0 -192 -50t-164 -142q-85 -112 -135.5 -285.5t-50.5 -359.5q0 -206 102.5 -323.5t280.5 -117.5q130 0 241 79t207 241l131 -41q-93 -201 -247.5 -307.5t-352.5 -106.5q-285 0 -454.5 173t-169.5 462q0 168 60 332t173 305
q109 133 255.5 206.5t303.5 73.5q59 0 116.5 -11.5t147.5 -45.5q33 -12 83.5 -39.5t68.5 -27.5q29 0 49.5 29t32.5 89h129l-82 -653h-129z" />
    <glyph glyph-name="D" unicode="D" horiz-adv-x="1688" 
d="M0 0l33 133h18q69 0 103 26.5t51 94.5l235 901q6 24 9.5 49.5t3.5 50.5q0 47 -37 66.5t-127 19.5h-19l33 134h557q165 0 250 -15t152 -49q142 -73 225.5 -221.5t83.5 -331.5q0 -207 -83.5 -389.5t-236.5 -308.5q-98 -83 -223.5 -121.5t-300.5 -38.5h-727zM670 1155
l-215 -835q-10 -38 -13.5 -58.5t-3.5 -34.5q0 -57 56.5 -80.5t199.5 -23.5q121 0 220 42t173 124q104 113 166 288.5t62 358.5q0 193 -100.5 301.5t-280.5 108.5q-104 0 -172.5 -49.5t-91.5 -141.5z" />
    <glyph glyph-name="E" unicode="E" horiz-adv-x="1554" 
d="M0 0l33 133h18q69 0 103 26.5t51 94.5l235 901q6 24 9.5 49.5t3.5 50.5q0 47 -37 66.5t-127 19.5h-19l33 134h1180l-70 -478h-135q1 24 2 62q2 58 2 74q0 117 -44.5 162.5t-156.5 45.5h-174q-125 0 -163.5 -25t-57.5 -95l-96 -375h92q129 0 178.5 43.5t73.5 165.5h139
l-162 -631h-139q11 55 17 98.5t6 75.5q0 64 -31 89.5t-117 25.5h-92l-100 -394q-10 -35 -14.5 -58t-4.5 -38q0 -51 34 -70.5t151 -19.5h122q207 0 305 77t162 282h152l-168 -492h-1194z" />
    <glyph glyph-name="F" unicode="F" horiz-adv-x="1425" 
d="M0 0l33 133h18q69 0 103 26.5t51 94.5l235 901q6 24 9.5 49.5t3.5 50.5q0 47 -37 66.5t-127 19.5h-19l33 134h1180l-70 -478h-135q1 24 2 62q2 58 2 74q0 117 -44.5 162.5t-156.5 45.5h-174q-125 0 -163.5 -25t-57.5 -95l-96 -375h92q129 0 178.5 43.5t73.5 165.5h139
l-162 -631h-139q11 55 17 98.5t6 75.5q0 64 -31 89.5t-117 25.5h-92l-100 -394q-10 -35 -14.5 -58t-4.5 -38q0 -50 34 -70t124 -20h35l-39 -133h-590z" />
    <glyph glyph-name="G" unicode="G" horiz-adv-x="1753" 
d="M1354 940q-24 207 -133 318.5t-285 111.5q-111 0 -205.5 -49t-169.5 -145q-88 -113 -137 -271.5t-49 -335.5q0 -225 101 -342.5t294 -117.5q186 0 317.5 112t131.5 266q0 60 -38.5 83t-162.5 30l33 131h645l-36 -131q-104 -2 -158.5 -57t-92.5 -207l-92 -375h-121v2
q-8 94 -41 94q-3 0 -146 -48t-292 -48q-274 0 -439 179t-165 474q0 165 56 320t163 285q118 144 263 218t308 74q68 0 134 -12t130 -37q36 -12 99 -42.5t90 -30.5q32 0 55 29.5t37 88.5h115l-68 -567h-141z" />
    <glyph glyph-name="H" unicode="H" horiz-adv-x="1792" 
d="M455 319q-10 -35 -14.5 -58t-4.5 -38q0 -49 34.5 -69.5t119.5 -20.5h31l-33 -133h-588l33 133h18q69 0 103 26.5t51 94.5l235 901q6 24 9.5 49.5t3.5 50.5q0 47 -37 66.5t-127 19.5h-19l33 134h637l-33 -134h-33q-91 0 -130 -26t-58 -94l-98 -385h676l84 319q6 23 9 47.5
t3 54.5q0 44 -32 64t-101 20l35 134h542l-35 -134h-22q-72 0 -103.5 -24.5t-50.5 -95.5l-231 -902q-7 -29 -10.5 -53.5t-3.5 -42.5q0 -50 31 -70t116 -20h37l-35 -133h-643l35 133q10 -1 21 -1.5t30 -0.5q82 0 119 26t55 97l115 444h-678z" />
    <glyph glyph-name="I" unicode="I" horiz-adv-x="891" 
d="M455 319q-10 -35 -14.5 -58t-4.5 -38q0 -49 34.5 -69.5t119.5 -20.5h31l-33 -133h-588l33 133h18q69 0 103 26.5t51 94.5l235 901q6 24 9.5 49.5t3.5 50.5q0 47 -37 66.5t-127 19.5h-19l33 134h592l-35 -134h-10q-73 0 -109.5 -26.5t-54.5 -93.5z" />
    <glyph glyph-name="J" unicode="J" horiz-adv-x="1081" 
d="M655 1155q7 26 11 52.5t4 47.5q0 48 -37 67t-131 19l35 134h593l-32 -134h-23q-80 0 -118.5 -27t-53.5 -93l-192 -807q-54 -223 -170.5 -338t-288.5 -115q-142 0 -233 73.5t-91 186.5q0 81 47 130.5t121 49.5q61 0 99 -35.5t38 -93.5q0 -66 -74 -116q-18 -13 -18 -17
q0 -16 30.5 -32.5t68.5 -16.5q87 0 144 79t101 263z" />
    <glyph glyph-name="K" unicode="K" horiz-adv-x="1663" 
d="M0 0l33 133h18q69 0 103 26.5t51 94.5l235 901q6 24 9.5 49.5t3.5 50.5q0 47 -37 66.5t-127 19.5h-19l33 134h637l-33 -134h-33q-91 0 -130 -26t-58 -94l-127 -492l584 412q66 47 92.5 77t26.5 56q0 32 -39.5 49t-116.5 19l35 133h637l-19 -134q-48 0 -117.5 -31.5
t-164.5 -97.5l-455 -313l240 -614q21 -53 40.5 -79t47.5 -42q20 -12 60.5 -20t96.5 -11l-32 -133h-648l36 133q91 5 128 25t37 63q0 26 -7.5 57t-23.5 72l-161 416l-328 -236l-53 -211q-10 -35 -14.5 -58t-4.5 -38q0 -49 34.5 -69.5t119.5 -20.5h31l-33 -133h-588z" />
    <glyph glyph-name="L" unicode="L" horiz-adv-x="1382" 
d="M455 319q-10 -35 -14.5 -58t-4.5 -38q0 -51 34 -70.5t151 -19.5h100q188 0 290.5 94.5t164.5 327.5h157l-153 -555h-1180l33 133h18q69 0 103 26.5t51 94.5l235 901q6 24 9.5 49.5t3.5 50.5q0 47 -37 66.5t-127 19.5h-19l33 134h651l-34 -134q-10 0 -26.5 1t-23.5 1
q-88 0 -127.5 -26.5t-56.5 -95.5z" />
    <glyph glyph-name="M" unicode="M" horiz-adv-x="1948" 
d="M846 1475l28 -1061l609 1061h475l-29 -134h-10q-75 0 -112.5 -26.5t-55.5 -93.5l-233 -902q-9 -29 -13 -53.5t-4 -42.5q0 -49 34 -69.5t120 -20.5h31l-35 -133h-602l38 133h33q73 0 107.5 26t52.5 95l279 1104l-773 -1358h-102l-49 1366l-268 -1047q-9 -33 -13 -55.5
t-4 -40.5q0 -50 31 -70t111 -20h28l-33 -133h-487l33 133h18q69 0 103 26.5t51 94.5l235 901q6 24 9.5 49.5t3.5 50.5q0 47 -37 66.5t-127 19.5h-19l33 134h543z" />
    <glyph glyph-name="N" unicode="N" horiz-adv-x="1696" 
d="M365 319q-9 -29 -13 -53.5t-4 -42.5q0 -49 33 -69.5t113 -20.5h26l-31 -133h-489l33 133h18q69 0 103 26.5t51 94.5l235 901q6 24 9.5 49.5t3.5 50.5q0 47 -37 66.5t-127 19.5h-19l33 134h453l389 -1076l196 756q10 37 14.5 60.5t4.5 35.5q0 49 -33.5 69.5t-114.5 20.5
h-26l31 134h491l-35 -134h-18q-69 0 -103 -26.5t-51 -93.5l-317 -1221h-135l-451 1227z" />
    <glyph glyph-name="O" unicode="O" 
d="M373 537q0 -208 102 -323.5t285 -115.5q120 0 211.5 52.5t175.5 168.5q93 131 143.5 292t50.5 325q0 204 -101 321t-277 117q-111 0 -207.5 -51t-175.5 -152q-95 -117 -151 -289.5t-56 -344.5zM1593 858q0 -177 -66 -345t-188 -300q-115 -126 -267 -190t-335 -64
q-284 0 -455 173.5t-171 461.5q0 168 61 327t176 291q130 147 288.5 221t342.5 74q279 0 446.5 -177.5t167.5 -471.5z" />
    <glyph glyph-name="P" unicode="P" horiz-adv-x="1415" 
d="M803 1475h90q144 0 218 -12t130 -40q90 -45 137 -123t47 -182q0 -111 -51 -204t-149 -158q-81 -55 -189 -79t-301 -24h-194l-86 -334q-10 -35 -14.5 -58t-4.5 -38q0 -50 35 -70t127 -20h35l-37 -133h-596l33 133h18q69 0 103 26.5t51 94.5l235 901q6 24 9.5 49.5
t3.5 50.5q0 47 -37 66.5t-127 19.5h-19l33 134h500zM686 1221l-111 -437h177q208 0 311.5 83.5t103.5 250.5q0 115 -67.5 170t-206.5 55q-108 0 -148.5 -26t-58.5 -96z" />
    <glyph glyph-name="Q" unicode="Q" 
d="M700 98l111 2q29 49 43 87t14 67q0 58 -36 93.5t-95 35.5q-54 0 -88.5 -36.5t-34.5 -94.5q0 -51 21 -88.5t65 -65.5zM973 154q72 33 135 109t123 200q54 116 82 237t28 238q0 204 -101 320t-277 116q-111 0 -207.5 -51t-175.5 -152q-98 -123 -154.5 -305.5t-56.5 -378.5
q0 -146 46.5 -234t143.5 -126q-26 45 -38.5 84t-12.5 78q0 107 67.5 174t176.5 67q117 0 186.5 -61.5t69.5 -165.5q0 -30 -9 -68t-26 -81zM944 -19q-7 -23 -10.5 -43t-3.5 -38q0 -54 34 -85.5t91 -31.5q53 0 114 35t140 110l100 -104q-110 -109 -219.5 -161t-226.5 -52
q-123 0 -194 51t-71 139q0 37 14.5 77t43.5 85h-23q-284 0 -453 172t-169 459q0 170 60.5 328.5t176.5 289.5q130 147 288.5 221t342.5 74q279 0 446.5 -177.5t167.5 -471.5q0 -175 -66 -343t-188 -302q-81 -91 -179 -148t-216 -84z" />
    <glyph glyph-name="R" unicode="R" horiz-adv-x="1587" 
d="M686 1221l-96 -379h168q232 0 345.5 77t113.5 234q0 102 -67 147.5t-220 45.5q-139 0 -182.5 -26.5t-61.5 -98.5zM455 319q-10 -35 -14.5 -58t-4.5 -38q0 -49 34.5 -69.5t119.5 -20.5h31l-33 -133h-588l33 133h18q69 0 103 26.5t51 94.5l235 901q6 24 9.5 49.5t3.5 50.5
q0 47 -37 66.5t-127 19.5h-19l33 134h553q188 0 274 -11t148 -37q92 -38 141 -108t49 -164q0 -172 -150.5 -280t-412.5 -121q139 -56 196.5 -129t57.5 -191q0 -22 -1 -63.5t-1 -61.5q0 -89 19 -129.5t61 -40.5q52 0 89.5 58.5t53.5 167.5h123q-24 -193 -111 -298.5
t-221 -105.5q-128 0 -193 72.5t-65 214.5q0 49 4.5 130.5t4.5 113.5q0 127 -61 175t-228 48q-12 0 -37 -1t-39 -1z" />
    <glyph glyph-name="S" unicode="S" horiz-adv-x="1421" 
d="M188 -39h-120l118 600h127v-4q0 -205 108.5 -333t278.5 -128q108 0 178 68t70 172q0 75 -45 141t-160 150q-36 27 -106 75q-155 107 -209 168q-54 63 -80 125.5t-26 130.5q0 165 116 274t295 109q101 0 224.5 -48t148.5 -48q22 0 41.5 22.5t38.5 71.5h123l-105 -534h-121
q0 6 1 19.5t1 19.5q0 170 -85 268t-232 98q-100 0 -166.5 -55t-66.5 -137q0 -140 244 -300l12 -7q213 -140 295.5 -252t82.5 -246q0 -182 -129.5 -301t-332.5 -119q-68 0 -132 16t-151 58q-13 6 -37 18q-62 31 -90 31q-35 0 -60 -27.5t-49 -95.5z" />
    <glyph glyph-name="T" unicode="T" horiz-adv-x="1403" 
d="M1493 1475l-139 -541h-127l22 184q3 24 3.5 37.5t0.5 26.5q0 85 -37 123t-120 38q-75 0 -120.5 -45t-70.5 -143l-215 -836q-8 -29 -12 -53.5t-4 -42.5q0 -50 35 -70t127 -20h38l-30 -133h-682l41 133h37q94 0 139.5 27.5t62.5 93.5l234 901q6 22 9 46t3 46q0 49 -30.5 74
t-92.5 25q-72 0 -135.5 -61t-114.5 -179l-71 -164h-131l137 533h1243z" />
    <glyph glyph-name="U" unicode="U" 
d="M1325 506q-75 -281 -222.5 -413t-385.5 -132q-231 0 -361.5 108t-130.5 298q0 54 13.5 127t44.5 186l127 476q7 28 10.5 53t3.5 46q0 48 -38.5 67t-137.5 19h-21l35 134h660l-35 -134h-41q-88 0 -126.5 -25.5t-57.5 -94.5l-166 -609q-21 -78 -31 -136t-10 -99
q0 -127 80 -193.5t231 -66.5q157 0 260 106.5t162 331.5l158 600l2 9q16 65 16 87q0 50 -34.5 70t-125.5 20h-35l35 134h518l-32 -134h-19q-69 0 -103 -26t-52 -94z" />
    <glyph glyph-name="V" unicode="V" horiz-adv-x="1477" 
d="M1133 1151q10 21 16 49t6 49q0 52 -40 72t-148 20l34 134h551l-34 -134h-11q-66 0 -116.5 -44t-98.5 -146l-557 -1190h-217l-227 1194q-21 108 -57 147t-111 39h-27l35 134h592l-35 -134h-20q-97 0 -130.5 -21.5t-33.5 -78.5q0 -25 10 -83q1 -7 2 -11l178 -944z" />
    <glyph glyph-name="W" unicode="W" horiz-adv-x="2030" 
d="M1008 1110l-11 80q-10 98 -42 124t-125 28l34 133h520l-32 -133q-86 -2 -115 -24t-29 -87q0 -11 2 -27t9 -57l137 -838l338 842q10 26 16 52.5t6 45.5q0 50 -37 70.5t-137 22.5l35 133h534l-32 -134h-13q-64 0 -118.5 -48t-94.5 -142l-493 -1190h-146l-157 924l-387 -924
h-152l-227 1194q-22 110 -58 148t-112 38h-25l33 134h543l-35 -133q-78 -4 -104.5 -25.5t-26.5 -83.5q0 -16 2.5 -38.5t7.5 -47.5l152 -852z" />
    <glyph glyph-name="X" unicode="X" horiz-adv-x="1669" 
d="M477 334q-25 -25 -39 -55t-14 -58q0 -43 36 -61.5t122 -18.5l-33 -133h-621l33 133h4q62 0 130 39.5t171 136.5l453 431l-215 438q-42 85 -100.5 120t-157.5 35h-19l35 134h649l-34 -134h-15q-74 0 -106.5 -18t-32.5 -59q0 -27 9.5 -60t29.5 -74l112 -237l256 256
q25 25 39.5 55t14.5 58q0 41 -34 59.5t-113 19.5l38 134h615l-35 -134q-138 -13 -297 -162q-14 -13 -21 -20l-401 -379l231 -461q25 -50 56.5 -86t66.5 -55q36 -19 80.5 -29t95.5 -12l-32 -133h-684l34 133h31q79 0 113.5 18.5t34.5 59.5q0 26 -11 62t-30 73l-144 285z" />
    <glyph glyph-name="Y" unicode="Y" horiz-adv-x="1440" 
d="M201 0l30 133h39q88 0 129 26.5t60 94.5l86 330l-209 575q-42 109 -87 145.5t-128 36.5h-23l35 134h594l-35 -134h-20q-68 0 -99.5 -18.5t-31.5 -58.5q0 -20 3.5 -40.5t10.5 -39.5l168 -463l315 383q35 42 53.5 79.5t18.5 65.5q0 49 -40.5 70.5t-129.5 21.5l33 134h581
l-32 -134h-6q-58 0 -106 -26.5t-97 -87.5l-541 -662l-65 -246q-10 -36 -14.5 -59.5t-4.5 -36.5q0 -51 35 -71.5t125 -20.5q8 0 25 1t28 1l-35 -133h-665z" />
    <glyph glyph-name="Z" unicode="Z" horiz-adv-x="1489" 
d="M16 0v150l1108 1191h-376q-197 0 -292 -70.5t-177 -271.5h-123l135 476h1118v-148l-1108 -1194h381q121 0 195 14.5t120 47.5q46 32 92 106t115 231h127l-153 -532h-1162z" />
    <glyph glyph-name="bracketleft" unicode="[" horiz-adv-x="948" 
d="M920 1399h-66q-99 0 -121.5 -18t-48.5 -119l-334 -1287q-9 -36 -14.5 -69t-5.5 -49q0 -38 31 -53t110 -15h80l-19 -76h-395l449 1760h352z" />
    <glyph glyph-name="backslash" unicode="\" horiz-adv-x="588" 
d="M465 -190h-121l-199 1697h123z" />
    <glyph glyph-name="bracketright" unicode="]" horiz-adv-x="948" 
d="M-8 -211h65q102 0 123.5 17.5t46.5 117.5l334 1286q10 37 15.5 71t5.5 50q0 38 -30.5 53t-109.5 15h-82l19 74h395l-448 -1760h-353z" />
    <glyph glyph-name="asciicircum" unicode="^" horiz-adv-x="2048" 
d="M926 1462h194l512 -565h-98l-512 420l-514 -420h-96z" />
    <glyph glyph-name="underscore" unicode="_" horiz-adv-x="1024" 
d="M0 -340h1024v-143h-1024v143z" />
    <glyph glyph-name="grave" unicode="`" horiz-adv-x="1024" 
d="M782 1264h-80l-266 196q-29 22 -44 43.5t-15 42.5q0 33 21.5 54.5t54.5 21.5q21 0 42.5 -13t41.5 -36z" />
    <glyph glyph-name="a" unicode="a" horiz-adv-x="1360" 
d="M723 154q-88 -98 -179 -146.5t-186 -48.5q-142 0 -231.5 117.5t-89.5 308.5q0 142 48 281t136 252q89 112 196 172.5t218 60.5q105 0 176.5 -56t118.5 -175l55 213h195l-234 -844l-1 -3q-17 -64 -17 -89q0 -33 15.5 -52.5t41.5 -19.5q43 0 91.5 51t101.5 150h114
q-81 -180 -177.5 -270.5t-205.5 -90.5q-79 0 -124 45.5t-62 143.5zM672 1012q-78 0 -151.5 -50t-135.5 -145q-66 -101 -104.5 -228.5t-38.5 -246.5q0 -115 52 -180.5t142 -65.5q70 0 135.5 40.5t124.5 119.5q75 100 122.5 243t47.5 265q0 114 -52.5 181t-141.5 67z" />
    <glyph glyph-name="b" unicode="b" horiz-adv-x="1223" 
d="M360 938q76 102 158.5 151.5t177.5 49.5q160 0 252 -111.5t92 -306.5q0 -133 -39.5 -260t-113.5 -232q-89 -126 -218 -194t-280 -68q-175 0 -269.5 89.5t-94.5 254.5q0 56 11 122t36 149l184 655q9 33 12.5 53.5t3.5 32.5q0 38 -36.5 57t-110.5 19h-76l31 112
q119 2 233.5 9t225.5 20zM420 84q86 0 156 43t126 129q60 92 97 219.5t37 247.5q0 133 -50 200.5t-149 67.5q-65 0 -127 -36t-121 -109q-80 -99 -130 -244t-50 -274q0 -115 56 -179.5t155 -64.5z" />
    <glyph glyph-name="c" unicode="c" horiz-adv-x="1155" 
d="M967 319q-83 -173 -210 -264.5t-286 -91.5q-194 0 -315 132.5t-121 346.5q0 163 56.5 303.5t164.5 243.5q82 81 184 122.5t217 41.5q160 0 261.5 -84.5t101.5 -214.5q0 -82 -42.5 -132t-111.5 -50q-59 0 -98 34.5t-39 86.5q0 28 15 55.5t42 48.5q13 10 41.5 23.5
t28.5 25.5q0 36 -54 68.5t-126 32.5q-187 0 -302.5 -182t-115.5 -480q0 -148 64.5 -228.5t183.5 -80.5q92 0 177.5 61t164.5 182h119z" />
    <glyph glyph-name="d" unicode="d" horiz-adv-x="1364" 
d="M723 154q-88 -98 -179 -146.5t-186 -48.5q-142 0 -231.5 117.5t-89.5 308.5q0 142 48 281t136 252q89 112 196 172.5t218 60.5q105 0 176.5 -56t118.5 -175l92 317q7 25 10.5 47t3.5 39q0 38 -36.5 57t-110.5 19h-76l31 112q132 4 242.5 11t207.5 18l-356 -1251l-1 -3
q-17 -64 -17 -89q0 -35 16.5 -54.5t44.5 -19.5q44 0 94 51.5t103 151.5h114q-81 -180 -177.5 -270.5t-205.5 -90.5q-78 0 -123.5 46t-62.5 143zM668 1012q-78 0 -151.5 -50t-135.5 -145q-66 -100 -103.5 -227.5t-37.5 -247.5q0 -115 52 -180.5t142 -65.5q70 0 135.5 40.5
t124.5 119.5q75 100 122.5 243t47.5 265q0 114 -53 181t-143 67z" />
    <glyph glyph-name="e" unicode="e" horiz-adv-x="1114" 
d="M958 350q-101 -191 -231.5 -287t-288.5 -96q-190 0 -305 122.5t-115 326.5q0 167 64.5 312.5t187.5 258.5q89 81 193 124.5t209 43.5q137 0 219 -67.5t82 -180.5q0 -171 -189.5 -278.5t-535.5 -130.5q-12 -45 -17.5 -79.5t-5.5 -60.5q0 -121 65 -193.5t173 -72.5
q103 0 199 67t178 195zM266 598q236 15 369 94t133 201q0 68 -37.5 107.5t-101.5 39.5q-111 0 -206 -115.5t-157 -326.5z" />
    <glyph glyph-name="f" unicode="f" horiz-adv-x="719" 
d="M299 1010h-213l31 108h211q61 217 167 324.5t257 107.5q99 0 162 -50t63 -128q0 -52 -30.5 -84.5t-78.5 -32.5q-53 0 -83.5 25t-30.5 68q0 30 20 62q6 9 6 11q0 7 -13.5 13t-31.5 6q-72 0 -123 -77t-90 -245h201l-25 -108h-200l-193 -809q-75 -315 -179.5 -452.5
t-264.5 -137.5q-95 0 -158 48.5t-63 117.5q0 59 29 94t79 35q54 0 84.5 -25.5t30.5 -70.5q0 -35 -27 -67q-6 -8 -6 -9q0 -4 16.5 -8.5t38.5 -4.5q70 0 122.5 107.5t117.5 396.5z" />
    <glyph glyph-name="g" unicode="g" horiz-adv-x="1214" 
d="M700 154q-89 -79 -177 -118.5t-175 -39.5q-138 0 -224.5 113.5t-86.5 298.5q0 137 47 271.5t133 244.5q87 110 190 168.5t211 58.5q107 0 179.5 -57t115.5 -174l54 213h178l-246 -961q-73 -286 -212 -423.5t-355 -137.5q-151 0 -245.5 58t-94.5 149q0 51 33.5 85t85.5 34
q56 0 90.5 -29t34.5 -76q0 -23 -14.5 -47.5t-14.5 -26.5q0 -15 37.5 -30t87.5 -15q137 0 230 111t138 330zM664 1012q-76 0 -147 -47.5t-132 -139.5q-64 -97 -101.5 -220t-37.5 -234q0 -112 50 -175t138 -63q68 0 132 39t122 115q73 97 119.5 233.5t46.5 253.5
q0 109 -52 173.5t-138 64.5z" />
    <glyph glyph-name="h" unicode="h" horiz-adv-x="1325" 
d="M-6 0l358 1237q9 33 13 53.5t4 32.5q0 38 -37.5 57t-112.5 19h-76l31 112q134 4 244.5 11t207.5 18l-192 -666q95 133 192 196t205 63q99 0 158.5 -61t59.5 -161q0 -107 -96 -369l-11 -30q-55 -153 -74.5 -220t-19.5 -95q0 -33 16 -52.5t43 -19.5q45 0 94.5 54.5
t114.5 176.5h115q-94 -200 -192 -295.5t-210 -95.5q-82 0 -129 50t-47 139q0 57 23 147t69 217q12 32 34 90q83 218 83 295q0 50 -28 77.5t-78 27.5q-169 0 -313 -256.5t-253 -751.5h-196z" />
    <glyph glyph-name="i" unicode="i" horiz-adv-x="811" 
d="M692 326q-82 -181 -177.5 -271t-205.5 -90q-82 0 -128 50t-46 139q0 57 20 142.5t58 186.5q24 66 66 174q77 202 77 244q0 32 -12.5 48t-38.5 16q-46 0 -94 -45t-111 -148h-114q87 171 190 264.5t201 93.5q78 0 122 -50.5t44 -141.5q0 -51 -21.5 -132.5t-97.5 -293.5
q-56 -154 -75 -219.5t-19 -95.5q0 -34 15.5 -52t43.5 -18q43 0 89.5 49t101.5 150h112zM352 1411q0 57 38.5 96t94.5 39q57 0 96.5 -39t39.5 -96q0 -55 -40 -95t-96 -40q-55 0 -94 39.5t-39 95.5z" />
    <glyph glyph-name="j" unicode="j" horiz-adv-x="729" 
d="M354 201q-86 -333 -188.5 -461.5t-265.5 -128.5q-100 0 -166 48.5t-66 117.5q0 61 31 97t82 36q56 0 86.5 -26t30.5 -72q0 -35 -28 -70q-5 -7 -5 -8q0 -4 17.5 -8.5t39.5 -4.5q67 0 117.5 82t95.5 263l178 712q15 54 20 80t5 43q0 34 -11 49t-36 15q-47 0 -96 -46
t-111 -147h-113q87 170 191 264t203 94q75 0 120 -48t45 -130q0 -32 -9.5 -88t-28.5 -131zM322 1411q0 57 38 96t95 39q56 0 95.5 -39t39.5 -96q0 -55 -40 -95t-95 -40q-56 0 -94.5 39.5t-38.5 95.5z" />
    <glyph glyph-name="k" unicode="k" horiz-adv-x="1341" 
d="M1204 356q-71 -194 -167 -289.5t-222 -95.5q-120 0 -185 67t-65 191q0 25 5 81.5t5 86.5q0 95 -46.5 144t-137.5 49q-5 0 -15.5 -1t-17.5 -1l-172 -588h-196l358 1239q7 22 10.5 43.5t3.5 40.5q0 38 -36.5 57t-110.5 19h-76l31 112q119 2 233.5 9t225.5 20l-244 -856h25
q90 0 150 42.5t130 168.5q77 137 141.5 187.5t153.5 50.5q95 0 152 -47t57 -123q0 -61 -35 -98.5t-90 -37.5q-52 0 -79 23.5t-27 67.5q0 27 12 56.5t12 31.5q0 6 -7 9t-22 3q-27 0 -53.5 -28.5t-73.5 -115.5q-55 -104 -116 -160.5t-142 -78.5q110 -59 156 -125t55 -184
q2 -23 4 -63q8 -157 80 -157q56 0 114.5 64t113.5 186h108z" />
    <glyph glyph-name="l" unicode="l" horiz-adv-x="702" 
d="M623 338q-103 -197 -197 -285t-201 -88q-82 0 -129 50t-47 139q0 77 89 394l9 33l168 597q16 56 23.5 92.5t7.5 52.5q0 38 -36.5 57t-110.5 19h-76l31 112q119 2 235 9t225 20l-299 -1053q-38 -136 -53.5 -204t-15.5 -93q0 -30 15.5 -47.5t41.5 -17.5q42 0 90.5 51.5
t110.5 161.5h119z" />
    <glyph glyph-name="m" unicode="m" horiz-adv-x="1915" 
d="M63 0l154 502q64 210 82 285.5t18 111.5q0 32 -11 50t-30 18q-51 0 -102 -46.5t-113 -148.5h-112q86 169 189.5 263.5t199.5 94.5q76 0 116 -48.5t40 -141.5q0 -20 -3 -46t-8 -56q98 153 188.5 224t188.5 71q96 0 148.5 -58t52.5 -164q0 -16 -1.5 -34.5t-4.5 -38.5
q111 160 199.5 227.5t183.5 67.5q100 0 162.5 -60.5t62.5 -157.5q0 -56 -19 -130.5t-77 -227.5q-70 -188 -91.5 -258t-21.5 -102q0 -33 16.5 -52.5t45.5 -19.5q46 0 99 59t107 172h115q-97 -204 -194 -297.5t-211 -93.5q-81 0 -125.5 49.5t-44.5 139.5q0 63 22 150.5
t86 260.5q53 141 75.5 220t22.5 118q0 48 -25 73t-73 25q-152 0 -296.5 -264.5t-246.5 -736.5h-202l151 502q18 59 51 160q62 187 62 243q0 49 -23.5 72.5t-72.5 23.5q-143 0 -281 -262t-244 -739h-205z" />
    <glyph glyph-name="n" unicode="n" horiz-adv-x="1360" 
d="M268 0h-205l154 502q57 186 78.5 272.5t21.5 124.5q0 30 -11.5 48t-31.5 18q-51 0 -100.5 -44.5t-112.5 -148.5h-112q86 169 189.5 263.5t199.5 94.5q76 0 116 -48.5t40 -141.5q0 -20 -3 -46t-8 -56q104 153 199.5 224t198.5 71q98 0 158.5 -61t60.5 -161
q0 -107 -96 -369l-11 -30q-54 -149 -74 -217t-20 -98q0 -33 15.5 -51.5t41.5 -18.5q42 0 98 60.5t113 168.5h113q-94 -200 -192 -295.5t-209 -95.5q-82 0 -128 50t-46 139q0 59 22 148t68 215q11 30 32 85q84 223 84 301q0 48 -26 73t-76 25q-152 0 -294.5 -262t-246.5 -739
z" />
    <glyph glyph-name="o" unicode="o" horiz-adv-x="1241" 
d="M1092 680q0 -136 -44 -265t-122 -227q-88 -107 -206 -165t-249 -58q-195 0 -315.5 131.5t-120.5 345.5q0 163 56.5 303.5t164.5 243.5q84 82 186.5 123t219.5 41q195 0 312.5 -129t117.5 -344zM492 76q78 0 145.5 49t122.5 147q53 95 82.5 217t29.5 246
q0 154 -56.5 230.5t-168.5 76.5q-160 0 -273.5 -181t-113.5 -451q0 -161 60.5 -247.5t171.5 -86.5z" />
    <glyph glyph-name="p" unicode="p" horiz-adv-x="1382" 
d="M-14 780q67 163 169 259t205 96q77 0 117.5 -48.5t46.5 -148.5q81 104 168 154.5t185 50.5q155 0 251.5 -121.5t96.5 -321.5q0 -102 -23 -199t-69 -188q-87 -167 -210 -254.5t-272 -87.5q-119 0 -194.5 64.5t-100.5 187.5l-77 -301q-9 -35 -13 -57t-4 -37q0 -54 41 -76
t143 -22l-28 -109h-557l31 113q90 3 127 27t53 85l231 877q21 82 30 123.5t9 58.5q0 32 -14 50t-39 18q-46 0 -94 -47.5t-101 -145.5h-108zM635 109q79 0 143.5 45.5t118.5 140.5q53 92 82 200.5t29 217.5q0 140 -51 212t-150 72q-64 0 -127 -38.5t-117 -112.5
q-68 -91 -105.5 -210t-37.5 -243q0 -138 55.5 -211t159.5 -73z" />
    <glyph glyph-name="q" unicode="q" horiz-adv-x="1282" 
d="M672 1012q-78 0 -151.5 -50t-135.5 -145q-66 -101 -104.5 -228.5t-38.5 -244.5q0 -116 51.5 -182t142.5 -66q70 0 135.5 40.5t124.5 119.5q75 100 122.5 243t47.5 265q0 114 -52.5 181t-141.5 67zM432 -379l31 113q84 0 121.5 24.5t56.5 91.5l88 318
q-82 -104 -174.5 -155.5t-196.5 -51.5q-142 0 -231.5 117t-89.5 307q0 142 48 281t136 252q89 113 196 173t220 60q105 0 175.5 -56t117.5 -175l127 213h123l-332 -1207q-7 -26 -10.5 -50.5t-3.5 -45.5q0 -54 40 -76t142 -22l-29 -111h-555z" />
    <glyph glyph-name="r" unicode="r" horiz-adv-x="973" 
d="M483 852q84 157 161 229t161 72q70 0 110.5 -44t40.5 -120q0 -63 -37.5 -103t-97.5 -40q-51 0 -81.5 24.5t-30.5 65.5q0 1 1 5.5t1 8.5q-1 13 -3 16.5t-10 4.5q-88 0 -211.5 -272t-218.5 -699h-205l154 502q57 186 78.5 272.5t21.5 124.5q0 29 -12.5 48.5t-30.5 19.5
q-49 0 -98 -44.5t-115 -150.5h-112q86 169 189.5 263.5t199.5 94.5q75 0 115.5 -47t40.5 -135q0 -13 -2.5 -33t-8.5 -63z" />
    <glyph glyph-name="s" unicode="s" horiz-adv-x="979" 
d="M350 -35q-160 0 -265 83.5t-105 207.5q0 73 35 116.5t94 43.5q51 0 82.5 -29t31.5 -76q0 -46 -36.5 -85t-36.5 -48q0 -34 60 -65t140 -31q106 0 169 49t63 131q0 90 -169 218q-23 17 -34 26q-140 107 -190 179.5t-50 156.5q0 133 102.5 221t260.5 88q147 0 246.5 -76
t99.5 -184q0 -66 -38.5 -108t-98.5 -42q-50 0 -80.5 27t-30.5 70q0 47 42 85t42 54q0 23 -53 49.5t-117 26.5q-83 0 -140 -45.5t-57 -110.5q0 -45 31 -88t111 -102l22 -17q287 -216 287 -379q0 -145 -120 -245.5t-298 -100.5z" />
    <glyph glyph-name="t" unicode="t" horiz-adv-x="803" 
d="M274 1010h-213l31 108h213l111 400h196l-110 -400h196l-24 -108h-201l-201 -721q-8 -27 -12 -54.5t-4 -52.5q0 -35 15 -51t48 -16q56 0 119 61t127 178h123q-94 -194 -204.5 -291.5t-235.5 -97.5q-88 0 -138.5 53.5t-50.5 147.5q0 61 42 217l4 13z" />
    <glyph glyph-name="u" unicode="u" horiz-adv-x="1360" 
d="M-37 772q88 183 183.5 272t203.5 89q82 0 128 -50t46 -139q0 -61 -23 -153.5t-69 -215.5q-11 -30 -31 -84q-88 -235 -88 -298q0 -46 28 -71.5t79 -25.5q154 0 297.5 267.5t249.5 754.5h207l-162 -522q-58 -187 -79.5 -273t-21.5 -124q0 -31 13 -48.5t37 -17.5
q54 0 110 58.5t103 164.5h114q-73 -175 -183.5 -282t-213.5 -107q-76 0 -116 49t-40 142q0 20 2.5 45t7.5 57q-102 -153 -197.5 -224t-199.5 -71q-98 0 -158.5 61t-60.5 160q0 108 96 370l11 30q55 154 74.5 219.5t19.5 95.5q0 33 -16.5 51.5t-45.5 18.5q-41 0 -89 -50
t-101 -149h-115z" />
    <glyph glyph-name="v" unicode="v" horiz-adv-x="1241" 
d="M-25 772q89 184 183.5 272.5t201.5 88.5q86 0 133.5 -54t47.5 -151q0 -51 -20.5 -128t-61.5 -184q-9 -23 -26 -66q-101 -263 -101 -333q0 -65 36.5 -102t100.5 -37q70 0 149.5 46.5t147.5 129.5q93 112 148 251.5t55 262.5q0 62 -24 91t-85 40q-66 13 -95.5 40.5
t-29.5 74.5q0 54 35 87.5t92 33.5q96 0 157.5 -96.5t61.5 -250.5q0 -118 -39 -244t-114 -247q-105 -168 -237.5 -254t-287.5 -86q-124 0 -194 61t-70 168q0 104 92 354q11 30 17 46q51 143 71.5 213.5t20.5 101.5q0 33 -15.5 52.5t-41.5 19.5q-40 0 -88.5 -51t-104.5 -150
h-115z" />
    <glyph glyph-name="w" unicode="w" horiz-adv-x="1759" 
d="M989 592q-25 -105 -40 -198t-15 -136q0 -88 29 -130t90 -42q58 0 129 46.5t127 123.5q85 120 135.5 260.5t50.5 253.5q0 61 -23 89.5t-86 41.5q-68 15 -98.5 42t-30.5 73q0 52 36.5 85.5t95.5 33.5q91 0 154 -95t63 -239q0 -118 -36.5 -247.5t-105.5 -252.5
q-93 -164 -212 -250t-253 -86q-109 0 -170 61t-61 171q0 22 2 42.5t6 41.5q-111 -160 -216.5 -238t-211.5 -78q-98 0 -158.5 61t-60.5 160q0 101 84 337q15 41 22 62q54 150 74.5 218t20.5 98q0 33 -16.5 52.5t-43.5 19.5q-40 0 -88 -50t-104 -151h-115q88 183 183.5 272
t203.5 89q82 0 128 -50t46 -139q0 -59 -22 -148t-68 -215q-11 -29 -32 -85q-85 -224 -85 -301q0 -48 25 -73.5t72 -25.5q155 0 293 273t217 749h194z" />
    <glyph glyph-name="x" unicode="x" horiz-adv-x="1290" 
d="M494 152q-73 -93 -149.5 -139t-158.5 -46q-102 0 -170.5 58t-68.5 143q0 73 37.5 116.5t99.5 43.5q52 0 86.5 -31.5t34.5 -79.5q0 -49 -49 -103q-15 -15 -15 -20q0 -12 17 -22.5t41 -10.5q68 0 130.5 67.5t106.5 188.5q39 109 63.5 256t24.5 267q0 79 -32.5 125.5
t-85.5 46.5q-66 0 -120 -50t-114 -167h-113q61 163 159.5 252.5t215.5 89.5q89 0 151 -50t93 -147q55 95 131 147t160 52q98 0 165.5 -59.5t67.5 -145.5q0 -63 -36 -100t-97 -37q-50 0 -83.5 27t-33.5 69q0 35 23.5 70.5t23.5 37.5q0 12 -15 22.5t-34 10.5
q-67 0 -123.5 -62.5t-95.5 -178.5q-44 -135 -70 -279t-26 -238q0 -87 33 -133.5t94 -46.5q64 0 132 56.5t142 171.5l115 -7q-93 -175 -199 -260.5t-231 -85.5q-98 0 -156.5 47t-70.5 134z" />
    <glyph glyph-name="y" unicode="y" horiz-adv-x="1290" 
d="M987 1118h180l-243 -946q-75 -291 -218 -427t-376 -136q-145 0 -231.5 54.5t-86.5 141.5q0 56 36 94t87 38q56 0 88.5 -28.5t32.5 -76.5q0 -23 -9 -46.5t-9 -25.5q0 -15 32.5 -30t75.5 -15q146 0 246 124t147 362q-76 -99 -175 -155t-193 -56q-99 0 -159 58.5t-60 156.5
q0 103 93 355q8 23 13 36q54 148 74 214.5t20 94.5q0 33 -17.5 52.5t-45.5 19.5q-38 0 -81 -45t-108 -154h-114q89 181 183.5 268t201.5 87q83 0 129.5 -49t46.5 -136q0 -56 -22.5 -144.5t-67.5 -209.5q-12 -31 -33 -87q-84 -218 -84 -294q0 -48 26 -72t76 -24
q170 0 305 248.5t240 752.5z" />
    <glyph glyph-name="z" unicode="z" horiz-adv-x="1028" 
d="M97 267q31 13 59.5 19.5t54.5 6.5q63 0 192 -64.5t193 -64.5q71 0 122.5 46t88.5 144h106q-36 -192 -124 -288.5t-226 -96.5q-72 0 -131.5 24t-118.5 77q-22 20 -60 58q-70 73 -108 73q-22 0 -34.5 -12t-12.5 -33q0 -20 27 -60t27 -63q0 -33 -18.5 -50.5t-51.5 -17.5
q-47 0 -69.5 46t-22.5 143q0 157 91 278t263 193q60 25 162.5 54t140.5 44q53 22 90 53t61 73q-20 -4 -40 -6.5t-43 -2.5q-63 0 -184.5 53t-186.5 53t-111.5 -35.5t-72.5 -105.5h-103q32 165 112 253.5t198 88.5q51 0 95.5 -18.5t90.5 -57.5q19 -16 52 -46
q122 -107 167 -107q19 0 28 7.5t9 22.5q0 24 -32 70.5t-32 68.5q0 25 19 41.5t47 16.5q50 0 75 -47.5t25 -143.5q0 -131 -92.5 -241t-269.5 -187q-47 -20 -152.5 -53.5t-156.5 -58.5q-61 -31 -95.5 -66.5t-47.5 -80.5z" />
    <glyph glyph-name="braceleft" unicode="{" horiz-adv-x="1024" 
d="M848 1516v-53q-136 -2 -186 -55t-50 -210v-141q0 -227 -59 -308.5t-217 -113.5q159 -32 217.5 -113.5t58.5 -308.5v-141q0 -157 49.5 -209t186.5 -54v-53h-10q-219 0 -301 74t-82 272v207q0 161 -59 221.5t-218 73.5v64q161 13 219 73.5t58 221.5v206q0 199 82 273
t301 74h10z" />
    <glyph glyph-name="bar" unicode="|" horiz-adv-x="1024" 
d="M438 1565h150v-2048h-150v2048z" />
    <glyph glyph-name="braceright" unicode="}" horiz-adv-x="1024" 
d="M176 1516h10q220 0 302.5 -74t82.5 -273v-206q0 -161 58 -221.5t219 -73.5v-64q-161 -13 -219 -73.5t-58 -221.5v-207q0 -198 -82.5 -272t-302.5 -74h-10v53q137 2 186.5 54.5t49.5 208.5v141q0 227 58.5 308.5t217.5 113.5q-158 32 -217 113.5t-59 308.5v141
q0 157 -50 210t-186 55v53z" />
    <glyph glyph-name="asciitilde" unicode="~" 
d="M1530 770v-156q-104 -72 -199 -106.5t-190 -34.5q-93 0 -256 58q-22 8 -34 12l-15 5q-176 60 -273 60q-84 0 -175 -37t-210 -120v155q106 72 202 108t185 36q62 0 127.5 -13.5t163.5 -48.5q16 -5 47 -17q159 -57 240 -57q88 0 179.5 37t207.5 119z" />
    <glyph glyph-name="Euro" horiz-adv-x="1114" 
d="M45 930h115q84 271 225.5 427t312.5 156q99 0 182.5 -51t92.5 -51q16 0 26 18t21 78h96l-47 -522h-96q-21 206 -85.5 297.5t-174.5 91.5q-115 0 -196.5 -114t-123.5 -330h432l-22 -92l-426 -1q-9 -66 -14 -114.5t-6 -85.5h399l-25 -94h-379q0 -236 55.5 -341.5
t165.5 -105.5q93 0 174 81.5t146 238.5l111 -41q-61 -190 -183 -302t-262 -112q-205 0 -323 152t-130 430h-133l23 94h110q4 52 11 102t18 99h-115z" />
    <glyph glyph-name="Euro" unicode="&#x20ac;" horiz-adv-x="1114" 
d="M45 930h115q84 271 225.5 427t312.5 156q99 0 182.5 -51t92.5 -51q16 0 26 18t21 78h96l-47 -522h-96q-21 206 -85.5 297.5t-174.5 91.5q-115 0 -196.5 -114t-123.5 -330h432l-22 -92l-426 -1q-9 -66 -14 -114.5t-6 -85.5h399l-25 -94h-379q0 -236 55.5 -341.5
t165.5 -105.5q93 0 174 81.5t146 238.5l111 -41q-61 -190 -183 -302t-262 -112q-205 0 -323 152t-130 430h-133l23 94h110q4 52 11 102t18 99h-115z" />
    <glyph glyph-name="nonbreakingspace" unicode="&#xa0;" horiz-adv-x="1114" 
 />
    <glyph glyph-name="exclamdown" unicode="&#xa1;" horiz-adv-x="807" 
d="M524 1087q-62 -254 -108.5 -583t-67.5 -400q-21 -72 -57 -107.5t-88 -35.5q-55 0 -92 39.5t-37 97.5q0 77 142.5 413.5t225.5 600.5zM690 1368q0 -59 -39.5 -99t-97.5 -40t-98.5 40.5t-40.5 98.5t40.5 98.5t98.5 40.5t97.5 -40t39.5 -99z" />
    <glyph glyph-name="cent" unicode="&#xa2;" horiz-adv-x="1114" 
d="M276 20q-105 48 -162 157t-57 261q0 198 80.5 361t224.5 256q78 48 154 72t156 24q19 0 39 -1.5t40 -4.5l109 254h92l-114 -271q94 -47 148 -121.5t54 -156.5q0 -76 -43.5 -125t-111.5 -49q-60 0 -94.5 32.5t-34.5 88.5q0 27 13 53.5t38 46.5q12 10 41 23t29 26
q0 20 -22 41.5t-60 38.5l-389 -924q24 -13 52.5 -19.5t59.5 -6.5q97 0 184 60.5t166 182.5h119q-84 -175 -210 -264.5t-290 -89.5q-26 0 -60 5.5t-73 15.5l-125 -299h-92zM338 166l373 878h-21q-176 0 -293.5 -178t-117.5 -450q0 -75 14.5 -136t44.5 -114z" />
    <glyph glyph-name="sterling" unicode="&#xa3;" horiz-adv-x="1114" 
d="M1006 328v-35q0 -153 -70 -242.5t-188 -89.5q-104 0 -253 95l-1 1q-91 58 -124 73t-55 15q-60 0 -96 -97l-2 -5q-15 -43 -36 -60.5t-56 -17.5q-39 0 -62.5 22.5t-23.5 59.5q0 52 82 104q48 30 69 52q54 52 78.5 155t24.5 285v113h-248l25 102h222q3 307 127 478t343 171
q136 0 219.5 -64.5t83.5 -168.5q0 -75 -36 -116.5t-99 -41.5q-60 0 -92.5 29t-32.5 82q0 45 34.5 87.5t34.5 43.5q0 15 -27.5 29t-66.5 14q-127 0 -194.5 -103t-67.5 -299v-92v-49h291l-25 -102h-266q-13 -145 -73.5 -283.5t-172.5 -277.5q60 26 108 38.5t91 12.5
q75 0 183 -33t141 -33q54 0 82.5 35.5t35.5 112.5h93z" />
    <glyph glyph-name="currency" unicode="&#xa4;" horiz-adv-x="1114" 
d="M45 930h115q84 271 225.5 427t312.5 156q99 0 182.5 -51t92.5 -51q16 0 26 18t21 78h96l-47 -522h-96q-21 206 -85.5 297.5t-174.5 91.5q-115 0 -196.5 -114t-123.5 -330h432l-22 -92l-426 -1q-9 -66 -14 -114.5t-6 -85.5h399l-25 -94h-379q0 -236 55.5 -341.5
t165.5 -105.5q93 0 174 81.5t146 238.5l111 -41q-61 -190 -183 -302t-262 -112q-205 0 -323 152t-130 430h-133l23 94h110q4 52 11 102t18 99h-115z" />
    <glyph glyph-name="yen" unicode="&#xa5;" horiz-adv-x="1399" 
d="M1538 1475l-33 -134h-6q-58 0 -105.5 -26.5t-97.5 -87.5l-206 -250h319l-25 -94h-376l-172 -205h497l-26 -94h-549l-68 -265q-9 -34 -13.5 -57t-4.5 -39q0 -50 34.5 -71t122.5 -21q8 0 25.5 1t28.5 1l-33 -133h-629l31 133h39q88 0 128.5 26.5t59.5 94.5l88 330h-547
l23 94h489l-73 205h-365l27 94h303l-68 182q-43 113 -86.5 147.5t-126.5 34.5h-22l33 134h555l-35 -134h-21q-68 0 -100.5 -19t-32.5 -58q0 -17 4.5 -37.5t12.5 -42.5l180 -496l342 416q34 42 52.5 79.5t18.5 65.5q0 49 -40 70.5t-129 21.5l32 134h545z" />
    <glyph glyph-name="brokenbar" unicode="&#xa6;" horiz-adv-x="1024" 
d="M438 408h150v-758h-150v758zM438 1432h150v-758h-150v758z" />
    <glyph glyph-name="section" unicode="&#xa7;" horiz-adv-x="1024" 
d="M287 797q0 -44 26.5 -101t81.5 -131q78 -104 120.5 -135t90.5 -31q51 0 84 33t33 82q0 39 -20.5 88t-65.5 115q-68 99 -121.5 146.5t-95.5 47.5q-54 0 -93.5 -34.5t-39.5 -79.5zM592 328q60 -68 92.5 -140t32.5 -137q0 -115 -97.5 -186.5t-254.5 -71.5
q-139 0 -222.5 61.5t-83.5 159.5q0 57 41 97.5t97 40.5q46 0 78 -29t32 -70q0 -36 -35.5 -79.5t-35.5 -57.5q0 -29 31 -48.5t81 -19.5q76 0 120 43.5t44 118.5q0 83 -107 220l-8 10l-151 190q-79 100 -108 164t-29 127q0 118 85 188t230 70h6q-64 76 -96.5 143t-32.5 121
q0 122 91.5 194t246.5 72q138 0 221.5 -57t83.5 -147q0 -57 -41.5 -97.5t-97.5 -40.5q-48 0 -82.5 30t-34.5 71q0 33 31 71t31 50q0 24 -30.5 42.5t-74.5 18.5q-71 0 -115.5 -39.5t-44.5 -101.5q0 -46 28.5 -101t98.5 -141l148 -184q80 -101 110.5 -168t30.5 -131
q0 -118 -82.5 -186.5t-226.5 -69.5z" />
    <glyph glyph-name="dieresis" unicode="&#xa8;" horiz-adv-x="1024" 
d="M707 1425q0 42 32.5 74.5t73.5 32.5q44 0 76.5 -31.5t32.5 -75.5q0 -47 -31 -77.5t-78 -30.5q-45 0 -75.5 31t-30.5 77zM354 1425q0 42 32.5 74.5t74.5 32.5q44 0 76 -31.5t32 -75.5q0 -47 -30.5 -77.5t-77.5 -30.5q-46 0 -76.5 31t-30.5 77z" />
    <glyph glyph-name="copyright" unicode="&#xa9;" horiz-adv-x="1683" 
d="M1122 1098h37l2 -316h-43q-32 135 -103 204t-177 69q-119 0 -179.5 -93.5t-60.5 -277.5q0 -187 66.5 -284t193.5 -97q84 0 153.5 44t127.5 132l39 -26q-61 -105 -148 -158t-199 -53q-173 0 -292 124t-119 304q0 183 118.5 307.5t290.5 124.5q75 0 149.5 -33t80.5 -33
q27 0 42 14.5t21 47.5zM844 1305q-123 0 -238 -49t-203 -138q-88 -90 -134 -202.5t-46 -237.5q0 -127 46.5 -239t136.5 -201q91 -90 201.5 -136.5t234.5 -46.5q126 0 237 46.5t199 136.5q89 90 136.5 204t47.5 236q0 123 -48 241t-134 203q-86 86 -201 134.5t-235 48.5z
M844 1391q138 0 269 -54.5t230 -152.5q100 -99 154.5 -232t54.5 -274q0 -140 -53.5 -269.5t-155.5 -232.5q-99 -101 -228 -155t-273 -54q-142 0 -270 53.5t-232 155.5q-103 102 -156 229t-53 273q0 141 53.5 270t155.5 232q100 101 230.5 156t273.5 55z" />
    <glyph glyph-name="ordfeminine" unicode="&#xaa;" horiz-adv-x="1020" 
d="M543 786q-66 -69 -134.5 -103t-140.5 -34q-106 0 -172.5 82.5t-66.5 216.5q0 101 35.5 198t101.5 175t146.5 120t164.5 42q78 0 132 -39.5t89 -122.5l41 149h146l-174 -589q-9 -29 -12 -42.5t-3 -23.5q0 -22 12 -35.5t31 -13.5q32 0 68.5 35.5t75.5 103.5h86
q-59 -124 -132 -188t-155 -64q-60 0 -93.5 32t-45.5 101zM504 1386q-58 0 -113 -35t-102 -102q-50 -70 -78.5 -159t-28.5 -172q0 -81 39 -127t107 -46q53 0 101.5 28.5t92.5 84.5q56 68 91.5 168t35.5 186q0 81 -39 127.5t-106 46.5z" />
    <glyph glyph-name="guillemotleft" unicode="&#xab;" horiz-adv-x="944" 
d="M369 582q149 106 280.5 222t136.5 116q11 -1 16 -6.5t5 -16.5q0 -39 -64.5 -131t-173.5 -205q59 -116 95 -216.5t36 -137.5q0 -15 -6.5 -23t-17.5 -8q-13 0 -106 139.5t-201 266.5zM45 582q149 106 280 222t136 116q11 0 16.5 -6t5.5 -17q0 -38 -65 -130t-174 -206
q59 -118 96 -218t37 -136q0 -15 -6.5 -23t-18.5 -8t-105.5 139.5t-201.5 266.5z" />
    <glyph glyph-name="logicalnot" unicode="&#xac;" 
d="M254 860h1198v-502h-137v363h-1061v139z" />
    <glyph glyph-name="sfthyphen" unicode="&#xad;" horiz-adv-x="692" 
d="M8 483l55 172h537l-53 -172h-539z" />
    <glyph glyph-name="registered" unicode="&#xae;" horiz-adv-x="1683" 
d="M738 721q13 -1 28 -1.5t35 -0.5q105 0 163 45t58 127q0 72 -50 116t-134 44q-51 0 -76 -17.5t-25 -52.5zM467 1094h397q144 0 231 -54t87 -141q0 -83 -66 -131.5t-219 -75.5q95 -28 145 -76.5t68 -130.5q1 -9 3 -28q11 -125 67 -125q31 0 47 33.5t16 97.5h45v-19
q0 -84 -41 -129t-119 -45q-49 0 -84 16t-51 46q-20 37 -22 110t-8 97q-19 71 -66.5 105t-130.5 34h-29v-246q0 -51 25.5 -72t93.5 -27v-44h-389v44q69 4 95 25.5t26 73.5v516q0 53 -26 74.5t-95 26.5v45zM844 1305q-123 0 -238 -49t-203 -138q-88 -90 -134 -202.5
t-46 -237.5q0 -127 46.5 -239t136.5 -201q89 -90 199.5 -136.5t236.5 -46.5q125 0 237 47t199 136q88 90 135 203t47 237q0 125 -47.5 242t-132.5 202q-86 86 -201 134.5t-235 48.5zM844 1391q140 0 273 -56t233 -157q97 -99 149.5 -230.5t52.5 -275.5q0 -139 -56 -270
t-161 -234q-100 -99 -228 -150t-276 -51q-134 0 -261.5 54.5t-229.5 154.5q-102 101 -155.5 229t-53.5 273q0 142 53 270.5t154 231.5q100 101 231.5 156t274.5 55z" />
    <glyph glyph-name="macron" unicode="&#xaf;" horiz-adv-x="1024" 
d="M354 1354l29 141h541l-31 -141h-539z" />
    <glyph glyph-name="degree" unicode="&#xb0;" horiz-adv-x="674" 
d="M338 1362q-81 0 -138 -56t-57 -137t57 -138.5t138 -57.5t136.5 57.5t55.5 138.5t-55.5 137t-136.5 56zM338 1456q118 0 202.5 -84.5t84.5 -204.5q0 -119 -84 -202.5t-205 -83.5t-204 83t-83 203t85 204.5t204 84.5z" />
    <glyph glyph-name="plusminus" unicode="&#xb1;" 
d="M254 170h1198v-141h-1198v141zM782 1192h142v-340h528v-139h-528v-340h-142v340h-528v139h528v340z" />
    <glyph glyph-name="twosuperior" unicode="&#xb2;" horiz-adv-x="735" 
d="M-10 588q1 103 55.5 189t215.5 213q14 11 41 32q196 152 196 256q0 65 -38.5 103t-103.5 38q-34 0 -54.5 -12t-20.5 -31q0 -3 13 -27t13 -46q0 -34 -26.5 -56t-67.5 -22q-44 0 -71 25t-27 67q0 71 75 123.5t183 52.5q126 0 207.5 -65.5t81.5 -167.5q0 -77 -47 -135
t-199 -148q-162 -95 -225.5 -153t-81.5 -119h247q53 0 72 12t45 57l25 39h80l-84 -225h-504z" />
    <glyph glyph-name="threesuperior" unicode="&#xb3;" horiz-adv-x="735" 
d="M252 1112h20q110 0 173 49.5t63 134.5q0 61 -31.5 95t-87.5 34q-26 0 -43.5 -8.5t-17.5 -19.5q0 -6 9 -23.5t9 -30.5q0 -35 -24 -55t-66 -20q-44 0 -69 21.5t-25 60.5q0 61 63 102t162 41q123 0 196.5 -58.5t73.5 -156.5q0 -85 -63 -137t-191 -72q90 -23 136.5 -77.5
t46.5 -137.5q0 -123 -94.5 -205t-235.5 -82q-108 0 -176 47t-68 119q0 48 27 78.5t70 30.5q44 0 71 -22.5t27 -57.5q0 -44 -49 -74q-15 -8 -15 -12q0 -14 29.5 -27.5t67.5 -13.5q80 0 134 71.5t54 178.5q0 74 -42.5 109.5t-131.5 35.5h-16z" />
    <glyph glyph-name="acute" unicode="&#xb4;" horiz-adv-x="1024" 
d="M522 1264h-88l293 295q31 31 60 47t53 16q35 0 57.5 -23t22.5 -59q0 -23 -16.5 -42.5t-59.5 -45.5z" />
    <glyph glyph-name="mu" unicode="&#xb5;" horiz-adv-x="1169" 
d="M166 195q-33 -143 -64 -355q-37 -260 -116 -260q-43 0 -65.5 24.5t-22.5 69.5q0 44 70 277t110 422l108 512h168l-100 -475q-9 -40 -13.5 -74.5t-4.5 -59.5q0 -70 41.5 -108.5t119.5 -38.5q97 0 154 54.5t82 172.5l112 529h173l-115 -532q-9 -43 -14 -75.5t-5 -52.5
q0 -48 26.5 -74t76.5 -26q44 0 81 25t58 69q13 27 27 73q17 56 39 56q9 0 15.5 -8t6.5 -21q0 -34 -13.5 -88t-35.5 -100q-39 -78 -92.5 -117t-122.5 -39q-81 0 -125.5 55t-44.5 154v13q-52 -115 -123 -168.5t-172 -53.5q-95 0 -151 56t-68 164z" />
    <glyph glyph-name="paragraph" unicode="&#xb6;" horiz-adv-x="1024" 
d="M958 1479v-86h-120v-1393h-111v1393h-176v-1393h-113v782q-170 8 -271 102.5t-101 245.5q0 157 107.5 253t285.5 96h499z" />
    <glyph glyph-name="glyph122" unicode="&#xb7;" horiz-adv-x="557" 
d="M145 735q0 59 39.5 98t98.5 39q58 0 98.5 -39.5t40.5 -97.5t-41 -98.5t-98 -40.5t-97.5 40.5t-40.5 98.5z" />
    <glyph glyph-name="cedilla" unicode="&#xb8;" horiz-adv-x="1024" 
d="M68 -379l36 90q60 -38 120 -58t112 -20q56 0 84.5 23t28.5 68q0 41 -27 63.5t-78 22.5q-14 0 -36 -2.5t-62 -8.5l65 201h66l-37 -115q11 2 24 3t37 1q90 0 139.5 -43.5t49.5 -121.5q0 -85 -59 -132t-166 -47q-57 0 -130 19t-167 57z" />
    <glyph glyph-name="onesuperior" unicode="&#xb9;" horiz-adv-x="735" 
d="M514 588h-487l18 71l45 3q62 4 92 25t45 77l115 395q8 26 12 49.5t4 38.5q0 16 -16 23.5t-49 7.5h-115l21 72q92 3 166 37.5t139 105.5h67l-207 -730q-2 -12 -4 -25.5t-2 -22.5q0 -25 23.5 -38.5t68.5 -14.5l82 -3z" />
    <glyph glyph-name="ordmasculine" unicode="&#xba;" horiz-adv-x="932" 
d="M819 1153q0 -95 -32.5 -185t-92.5 -159q-65 -75 -153.5 -115.5t-186.5 -40.5q-146 0 -236.5 92t-90.5 242q0 115 42.5 213.5t123.5 169.5q63 57 139 86t164 29q147 0 235 -90.5t88 -241.5zM369 731q59 0 109 34.5t91 102.5q40 66 63 152t23 172q0 107 -42.5 161
t-127.5 54q-119 0 -204.5 -127t-85.5 -315q0 -112 45.5 -173t128.5 -61z" />
    <glyph glyph-name="guillemotright" unicode="&#xbb;" horiz-adv-x="944" 
d="M750 512q-149 -106 -281 -221t-137 -115q-10 0 -15.5 6t-5.5 17q0 38 65 130t175 206q-60 118 -96.5 218t-36.5 136q0 14 6.5 22.5t17.5 8.5q13 0 106 -140.5t202 -267.5zM424 512q-149 -106 -280 -221t-136 -115q-11 0 -16.5 6t-5.5 17q0 38 65 130t174 206
q-59 118 -96 218t-37 136q0 14 7.5 22.5t19.5 8.5t104 -140t201 -268z" />
    <glyph glyph-name="onequarter" unicode="&#xbc;" horiz-adv-x="1745" 
d="M1434 309l112 383l-389 -383h277zM1653 0h-451l19 66h39q62 0 88 17t45 81l14 51h-363v76l560 553h106l-156 -535h154l-27 -94h-153l-15 -52q-5 -15 -7.5 -29.5t-2.5 -27.5q0 -23 17.5 -31.5t66.5 -8.5h86zM360 -47l904 1554h120l-901 -1554h-123zM492 647h-467l18 66
l44 4q58 3 86 22t44 72l111 369q6 25 10 47t4 35q0 15 -15.5 22.5t-45.5 7.5h-109l19 66q85 3 155.5 35t134.5 98h66l-197 -680q-4 -11 -6 -22.5t-2 -22.5q0 -23 22.5 -35.5t65.5 -13.5l80 -4z" />
    <glyph glyph-name="onehalf" unicode="&#xbd;" horiz-adv-x="1745" 
d="M1035 0q1 97 53.5 177t206.5 198q15 12 42 33q183 139 183 235q0 60 -37.5 96.5t-98.5 36.5q-32 0 -51.5 -10.5t-19.5 -28.5q0 -3 13 -26.5t13 -44.5q0 -31 -26 -51.5t-66 -20.5q-42 0 -67 23.5t-25 62.5q0 67 71 115.5t175 48.5q121 0 198.5 -61t77.5 -156
q0 -70 -44.5 -123.5t-192.5 -138.5q-152 -88 -212.5 -143t-78.5 -113h235q49 0 68 11.5t45 53.5l23 35h77l-81 -209h-481zM360 -47l904 1554h120l-901 -1554h-123zM492 647h-467l18 66l44 4q58 3 86 22t44 72l111 369q6 25 10 47t4 35q0 15 -15.5 22.5t-45.5 7.5h-109l19 66
q85 3 155.5 35t134.5 98h66l-197 -680q-4 -11 -6 -22.5t-2 -22.5q0 -23 22.5 -35.5t65.5 -13.5l80 -4z" />
    <glyph glyph-name="threequarters" unicode="&#xbe;" horiz-adv-x="1745" 
d="M1434 309l112 383l-389 -383h277zM1653 0h-451l19 66h39q62 0 88 17t45 81l14 51h-363v76l560 553h106l-156 -535h154l-27 -94h-153l-15 -52q-5 -15 -7.5 -29.5t-2.5 -27.5q0 -23 17.5 -31.5t66.5 -8.5h86zM360 -47l904 1554h120l-901 -1554h-123zM242 1137h18
q104 0 163.5 46t59.5 126q0 57 -29.5 89t-82.5 32q-26 0 -43 -8.5t-17 -20.5q0 -5 9.5 -21.5t9.5 -27.5q0 -33 -22.5 -51.5t-61.5 -18.5q-43 0 -66.5 20t-23.5 56q0 57 59.5 95t153.5 38q118 0 188 -54t70 -145q0 -79 -60 -127.5t-182 -68.5q86 -22 130 -72t44 -127
q0 -116 -89.5 -193t-223.5 -77q-104 0 -169 44.5t-65 112.5q0 44 26 71.5t66 27.5q42 0 67.5 -20.5t25.5 -53.5q0 -42 -48 -70q-12 -7 -12 -10q0 -12 28.5 -25.5t63.5 -13.5q77 0 129 67.5t52 168.5q0 68 -42 101.5t-126 33.5h-17z" />
    <glyph glyph-name="questiondown" unicode="&#xbf;" horiz-adv-x="1067" 
d="M637 1118l92 -22q-17 -160 -76.5 -276t-201.5 -247l-7 -5q-145 -135 -145 -281q0 -96 61 -155.5t160 -59.5q69 0 119.5 29t50.5 63q0 4 -40 47.5t-40 101.5q0 54 37 85.5t98 31.5q67 0 103.5 -41.5t36.5 -118.5q0 -127 -110.5 -218t-270.5 -91q-179 0 -294.5 104
t-115.5 265q0 107 52.5 190.5t175.5 167.5q13 9 43 28q103 64 151 120q41 46 70.5 115t50.5 167zM877 1368q0 -58 -39.5 -97.5t-98.5 -39.5q-58 0 -97.5 39.5t-39.5 97.5t40 98.5t97 40.5t97.5 -40.5t40.5 -98.5z" />
    <glyph glyph-name="Agrave" unicode="&#xc0;" horiz-adv-x="1622" 
d="M563 643h461l-98 635zM1284 332q19 -119 63 -155.5t158 -43.5l-35 -133h-626l33 133q120 9 160 35t40 86q0 19 -2.5 45t-7.5 59l-23 152h-559l-108 -211q-13 -25 -21 -51t-8 -41q0 -39 41 -55.5t149 -18.5l-32 -133h-543l35 133q66 14 111 50.5t98 125.5l667 1166h230z
M1190 1620h-80l-266 196q-29 22 -44 43.5t-15 42.5q0 33 21.5 54.5t54.5 21.5q21 0 42.5 -13t41.5 -36z" />
    <glyph glyph-name="Aacute" unicode="&#xc1;" horiz-adv-x="1622" 
d="M563 643h461l-98 635zM1284 332q19 -119 63 -155.5t158 -43.5l-35 -133h-626l33 133q120 9 160 35t40 86q0 19 -2.5 45t-7.5 59l-23 152h-559l-108 -211q-13 -25 -21 -51t-8 -41q0 -39 41 -55.5t149 -18.5l-32 -133h-543l35 133q66 14 111 50.5t98 125.5l667 1166h230z
M930 1620h-88l293 295q31 31 60 47t53 16q35 0 57.5 -23t22.5 -59q0 -23 -16.5 -42.5t-59.5 -45.5z" />
    <glyph glyph-name="Acircumflex" unicode="&#xc2;" horiz-adv-x="1622" 
d="M563 643h461l-98 635zM1284 332q19 -119 63 -155.5t158 -43.5l-35 -133h-626l33 133q120 9 160 35t40 86q0 19 -2.5 45t-7.5 59l-23 152h-559l-108 -211q-13 -25 -21 -51t-8 -41q0 -39 41 -55.5t149 -18.5l-32 -133h-543l35 133q66 14 111 50.5t98 125.5l667 1166h230z
M1295 1620h-74l-166 194l-252 -194h-96l309 348h113z" />
    <glyph glyph-name="Atilde" unicode="&#xc3;" horiz-adv-x="1622" 
d="M563 643h461l-98 635zM1284 332q19 -119 63 -155.5t158 -43.5l-35 -133h-626l33 133q120 9 160 35t40 86q0 19 -2.5 45t-7.5 59l-23 152h-559l-108 -211q-13 -25 -21 -51t-8 -41q0 -39 41 -55.5t149 -18.5l-32 -133h-543l35 133q66 14 111 50.5t98 125.5l667 1166h230z
M1346 1896q-20 -99 -68.5 -151t-121.5 -52q-17 0 -35.5 3t-42.5 10l-131 32q-24 6 -38 8.5t-22 2.5q-33 0 -52.5 -19.5t-27.5 -58.5h-61q14 99 59.5 150t120.5 51q15 -1 31 -3t41 -8l128 -34q22 -6 36 -8.5t22 -2.5q42 0 65.5 18.5t35.5 61.5h61z" />
    <glyph glyph-name="Adieresis" unicode="&#xc4;" horiz-adv-x="1622" 
d="M563 643h461l-98 635zM1284 332q19 -119 63 -155.5t158 -43.5l-35 -133h-626l33 133q120 9 160 35t40 86q0 19 -2.5 45t-7.5 59l-23 152h-559l-108 -211q-13 -25 -21 -51t-8 -41q0 -39 41 -55.5t149 -18.5l-32 -133h-543l35 133q66 14 111 50.5t98 125.5l667 1166h230z
M1115 1781q0 42 32.5 74.5t73.5 32.5q44 0 76.5 -31.5t32.5 -75.5q0 -47 -31 -77.5t-78 -30.5q-45 0 -75.5 31t-30.5 77zM762 1781q0 42 32.5 74.5t74.5 32.5q44 0 76 -31.5t32 -75.5q0 -47 -30.5 -77.5t-77.5 -30.5q-46 0 -76.5 31t-30.5 77z" />
    <glyph glyph-name="Aring" unicode="&#xc5;" horiz-adv-x="1622" 
d="M881 1722q0 -62 43 -104.5t106 -42.5q62 0 105 42.5t43 104.5q0 63 -43 107.5t-105 44.5q-63 0 -106 -44t-43 -108zM780 1724q0 104 72.5 176t177.5 72t176.5 -71.5t71.5 -176.5q0 -104 -71.5 -175.5t-176.5 -71.5t-177.5 71.5t-72.5 175.5zM1284 332q19 -119 63 -155.5
t158 -43.5l-35 -133h-626l33 133q120 9 160 35t40 86q0 19 -2.5 45t-7.5 59l-23 152h-559l-108 -211q-13 -25 -21 -51t-8 -41q0 -39 41 -55.5t149 -18.5l-32 -133h-543l35 133q66 14 111 50.5t98 125.5l641 1118h262zM563 643h461l-98 635z" />
    <glyph glyph-name="AE" unicode="&#xc6;" horiz-adv-x="2181" 
d="M727 0l33 133h18q70 0 104.5 27t51.5 94l67 272h-489l-147 -198q-22 -29 -35 -60.5t-13 -50.5q0 -28 23 -46.5t84 -37.5l-35 -133h-461l35 133q46 9 86 35t72 68l665 894q22 30 33.5 62t11.5 61q0 44 -35.5 62.5t-146.5 26.5l35 133h1432l-64 -478h-123q1 34 2.5 82.5
t1.5 59.5q0 112 -40.5 157t-141.5 45h-137q-115 0 -149 -24.5t-52 -95.5l-96 -375h69q118 0 163 43t67 166h127l-148 -631h-127q2 12 6 35q17 102 17 131q0 69 -28 96t-107 27h-74l-102 -394q-8 -30 -12.5 -55t-4.5 -41q0 -51 31.5 -70.5t136.5 -19.5h111q187 0 276.5 76
t149.5 283h137l-154 -492h-1124zM608 645h424l164 647q1 3 1.5 6t0.5 9q0 16 -10.5 28.5t-24.5 12.5t-34 -14t-37 -38z" />
    <glyph glyph-name="Ccedilla" unicode="&#xc7;" horiz-adv-x="1554" 
d="M1319 854v14q0 246 -104 376t-300 130q-99 0 -192 -50t-164 -142q-85 -112 -135.5 -285.5t-50.5 -359.5q0 -206 102.5 -323.5t280.5 -117.5q130 0 241 79t207 241l131 -41q-93 -201 -247.5 -307.5t-352.5 -106.5q-285 0 -454.5 173t-169.5 462q0 168 60 332t173 305
q109 133 255.5 206.5t303.5 73.5q59 0 116.5 -11.5t147.5 -45.5q33 -12 83.5 -39.5t68.5 -27.5q29 0 49.5 29t32.5 89h129l-82 -653h-129zM334 -379l36 90q60 -38 120 -58t112 -20q56 0 84.5 23t28.5 68q0 41 -27 63.5t-78 22.5q-14 0 -36 -2.5t-62 -8.5l65 201h66l-37 -115
q11 2 24 3t37 1q90 0 139.5 -43.5t49.5 -121.5q0 -85 -59 -132t-166 -47q-57 0 -130 19t-167 57z" />
    <glyph glyph-name="Egrave" unicode="&#xc8;" horiz-adv-x="1554" 
d="M0 0l33 133h18q69 0 103 26.5t51 94.5l235 901q6 24 9.5 49.5t3.5 50.5q0 47 -37 66.5t-127 19.5h-19l33 134h1180l-70 -478h-135q1 24 2 62q2 58 2 74q0 117 -44.5 162.5t-156.5 45.5h-174q-125 0 -163.5 -25t-57.5 -95l-96 -375h92q129 0 178.5 43.5t73.5 165.5h139
l-162 -631h-139q11 55 17 98.5t6 75.5q0 64 -31 89.5t-117 25.5h-92l-100 -394q-10 -35 -14.5 -58t-4.5 -38q0 -51 34 -70.5t151 -19.5h122q207 0 305 77t162 282h152l-168 -492h-1194zM1155 1620h-80l-266 196q-29 22 -44 43.5t-15 42.5q0 33 21.5 54.5t54.5 21.5
q21 0 42.5 -13t41.5 -36z" />
    <glyph glyph-name="Eacute" unicode="&#xc9;" horiz-adv-x="1554" 
d="M0 0l33 133h18q69 0 103 26.5t51 94.5l235 901q6 24 9.5 49.5t3.5 50.5q0 47 -37 66.5t-127 19.5h-19l33 134h1180l-70 -478h-135q1 24 2 62q2 58 2 74q0 117 -44.5 162.5t-156.5 45.5h-174q-125 0 -163.5 -25t-57.5 -95l-96 -375h92q129 0 178.5 43.5t73.5 165.5h139
l-162 -631h-139q11 55 17 98.5t6 75.5q0 64 -31 89.5t-117 25.5h-92l-100 -394q-10 -35 -14.5 -58t-4.5 -38q0 -51 34 -70.5t151 -19.5h122q207 0 305 77t162 282h152l-168 -492h-1194zM895 1620h-88l293 295q31 31 60 47t53 16q35 0 57.5 -23t22.5 -59q0 -23 -16.5 -42.5
t-59.5 -45.5z" />
    <glyph glyph-name="Ecircumflex" unicode="&#xca;" horiz-adv-x="1554" 
d="M0 0l33 133h18q69 0 103 26.5t51 94.5l235 901q6 24 9.5 49.5t3.5 50.5q0 47 -37 66.5t-127 19.5h-19l33 134h1180l-70 -478h-135q1 24 2 62q2 58 2 74q0 117 -44.5 162.5t-156.5 45.5h-174q-125 0 -163.5 -25t-57.5 -95l-96 -375h92q129 0 178.5 43.5t73.5 165.5h139
l-162 -631h-139q11 55 17 98.5t6 75.5q0 64 -31 89.5t-117 25.5h-92l-100 -394q-10 -35 -14.5 -58t-4.5 -38q0 -51 34 -70.5t151 -19.5h122q207 0 305 77t162 282h152l-168 -492h-1194zM1260 1620h-74l-166 194l-252 -194h-96l309 348h113z" />
    <glyph glyph-name="Edieresis" unicode="&#xcb;" horiz-adv-x="1554" 
d="M0 0l33 133h18q69 0 103 26.5t51 94.5l235 901q6 24 9.5 49.5t3.5 50.5q0 47 -37 66.5t-127 19.5h-19l33 134h1180l-70 -478h-135q1 24 2 62q2 58 2 74q0 117 -44.5 162.5t-156.5 45.5h-174q-125 0 -163.5 -25t-57.5 -95l-96 -375h92q129 0 178.5 43.5t73.5 165.5h139
l-162 -631h-139q11 55 17 98.5t6 75.5q0 64 -31 89.5t-117 25.5h-92l-100 -394q-10 -35 -14.5 -58t-4.5 -38q0 -51 34 -70.5t151 -19.5h122q207 0 305 77t162 282h152l-168 -492h-1194zM1080 1781q0 42 32.5 74.5t73.5 32.5q44 0 76.5 -31.5t32.5 -75.5q0 -47 -31 -77.5
t-78 -30.5q-45 0 -75.5 31t-30.5 77zM727 1781q0 42 32.5 74.5t74.5 32.5q44 0 76 -31.5t32 -75.5q0 -47 -30.5 -77.5t-77.5 -30.5q-46 0 -76.5 31t-30.5 77z" />
    <glyph glyph-name="Igrave" unicode="&#xcc;" horiz-adv-x="891" 
d="M455 319q-10 -35 -14.5 -58t-4.5 -38q0 -49 34.5 -69.5t119.5 -20.5h31l-33 -133h-588l33 133h18q69 0 103 26.5t51 94.5l235 901q6 24 9.5 49.5t3.5 50.5q0 47 -37 66.5t-127 19.5h-19l33 134h592l-35 -134h-10q-73 0 -109.5 -26.5t-54.5 -93.5zM823 1620h-80l-266 196
q-29 22 -44 43.5t-15 42.5q0 33 21.5 54.5t54.5 21.5q21 0 42.5 -13t41.5 -36z" />
    <glyph glyph-name="Iacute" unicode="&#xcd;" horiz-adv-x="891" 
d="M455 319q-10 -35 -14.5 -58t-4.5 -38q0 -49 34.5 -69.5t119.5 -20.5h31l-33 -133h-588l33 133h18q69 0 103 26.5t51 94.5l235 901q6 24 9.5 49.5t3.5 50.5q0 47 -37 66.5t-127 19.5h-19l33 134h592l-35 -134h-10q-73 0 -109.5 -26.5t-54.5 -93.5zM563 1620h-88l293 295
q31 31 60 47t53 16q35 0 57.5 -23t22.5 -59q0 -23 -16.5 -42.5t-59.5 -45.5z" />
    <glyph glyph-name="Icircumflex" unicode="&#xce;" horiz-adv-x="891" 
d="M455 319q-10 -35 -14.5 -58t-4.5 -38q0 -49 34.5 -69.5t119.5 -20.5h31l-33 -133h-588l33 133h18q69 0 103 26.5t51 94.5l235 901q6 24 9.5 49.5t3.5 50.5q0 47 -37 66.5t-127 19.5h-19l33 134h592l-35 -134h-10q-73 0 -109.5 -26.5t-54.5 -93.5zM928 1620h-74l-166 194
l-252 -194h-96l309 348h113z" />
    <glyph glyph-name="Idieresis" unicode="&#xcf;" horiz-adv-x="891" 
d="M455 319q-10 -35 -14.5 -58t-4.5 -38q0 -49 34.5 -69.5t119.5 -20.5h31l-33 -133h-588l33 133h18q69 0 103 26.5t51 94.5l235 901q6 24 9.5 49.5t3.5 50.5q0 47 -37 66.5t-127 19.5h-19l33 134h592l-35 -134h-10q-73 0 -109.5 -26.5t-54.5 -93.5zM748 1781
q0 42 32.5 74.5t73.5 32.5q44 0 76.5 -31.5t32.5 -75.5q0 -47 -31 -77.5t-78 -30.5q-45 0 -75.5 31t-30.5 77zM395 1781q0 42 32.5 74.5t74.5 32.5q44 0 76 -31.5t32 -75.5q0 -47 -30.5 -77.5t-77.5 -30.5q-46 0 -76.5 31t-30.5 77z" />
    <glyph glyph-name="Eth" unicode="&#xd0;" horiz-adv-x="1698" 
d="M8 0l35 133h18q70 0 103.5 26.5t50.5 94.5l117 451h-285l35 124h280l87 326q6 24 9 49.5t3 50.5q0 47 -37 66.5t-127 19.5h-18l34 134h555q167 0 252 -15t152 -49q142 -73 225.5 -221.5t83.5 -331.5q0 -207 -83.5 -389.5t-235.5 -308.5q-99 -83 -225.5 -121.5
t-301.5 -38.5h-727zM678 1155l-84 -326h352l-35 -124h-350l-98 -385q-9 -37 -13 -58t-4 -35q0 -57 56.5 -80.5t199.5 -23.5q121 0 221.5 42t174.5 124q102 112 163.5 287.5t61.5 359.5q0 193 -100.5 301.5t-280.5 108.5q-105 0 -172 -49t-92 -142z" />
    <glyph glyph-name="Ntilde" unicode="&#xd1;" horiz-adv-x="1696" 
d="M365 319q-9 -29 -13 -53.5t-4 -42.5q0 -49 33 -69.5t113 -20.5h26l-31 -133h-489l33 133h18q69 0 103 26.5t51 94.5l235 901q6 24 9.5 49.5t3.5 50.5q0 47 -37 66.5t-127 19.5h-19l33 134h453l389 -1076l196 756q10 37 14.5 60.5t4.5 35.5q0 49 -33.5 69.5t-114.5 20.5
h-26l31 134h491l-35 -134h-18q-69 0 -103 -26.5t-51 -93.5l-317 -1221h-135l-451 1227zM1382 1896q-20 -99 -68.5 -151t-121.5 -52q-17 0 -35.5 3t-42.5 10l-131 32q-24 6 -38 8.5t-22 2.5q-33 0 -52.5 -19.5t-27.5 -58.5h-61q14 99 59.5 150t120.5 51q15 -1 31 -3t41 -8
l128 -34q22 -6 36 -8.5t22 -2.5q42 0 65.5 18.5t35.5 61.5h61z" />
    <glyph glyph-name="Ograve" unicode="&#xd2;" 
d="M373 537q0 -208 102 -323.5t285 -115.5q120 0 211.5 52.5t175.5 168.5q93 131 143.5 292t50.5 325q0 204 -101 321t-277 117q-111 0 -207.5 -51t-175.5 -152q-95 -117 -151 -289.5t-56 -344.5zM1593 858q0 -177 -66 -345t-188 -300q-115 -126 -267 -190t-335 -64
q-284 0 -455 173.5t-171 461.5q0 168 61 327t176 291q130 147 288.5 221t342.5 74q279 0 446.5 -177.5t167.5 -471.5zM1231 1620h-80l-266 196q-29 22 -44 43.5t-15 42.5q0 33 21.5 54.5t54.5 21.5q21 0 42.5 -13t41.5 -36z" />
    <glyph glyph-name="Oacute" unicode="&#xd3;" 
d="M373 537q0 -208 102 -323.5t285 -115.5q120 0 211.5 52.5t175.5 168.5q93 131 143.5 292t50.5 325q0 204 -101 321t-277 117q-111 0 -207.5 -51t-175.5 -152q-95 -117 -151 -289.5t-56 -344.5zM1593 858q0 -177 -66 -345t-188 -300q-115 -126 -267 -190t-335 -64
q-284 0 -455 173.5t-171 461.5q0 168 61 327t176 291q130 147 288.5 221t342.5 74q279 0 446.5 -177.5t167.5 -471.5zM971 1620h-88l293 295q31 31 60 47t53 16q35 0 57.5 -23t22.5 -59q0 -23 -16.5 -42.5t-59.5 -45.5z" />
    <glyph glyph-name="Ocircumflex" unicode="&#xd4;" 
d="M373 537q0 -208 102 -323.5t285 -115.5q120 0 211.5 52.5t175.5 168.5q93 131 143.5 292t50.5 325q0 204 -101 321t-277 117q-111 0 -207.5 -51t-175.5 -152q-95 -117 -151 -289.5t-56 -344.5zM1593 858q0 -177 -66 -345t-188 -300q-115 -126 -267 -190t-335 -64
q-284 0 -455 173.5t-171 461.5q0 168 61 327t176 291q130 147 288.5 221t342.5 74q279 0 446.5 -177.5t167.5 -471.5zM1336 1620h-74l-166 194l-252 -194h-96l309 348h113z" />
    <glyph glyph-name="Otilde" unicode="&#xd5;" 
d="M373 537q0 -208 102 -323.5t285 -115.5q120 0 211.5 52.5t175.5 168.5q93 131 143.5 292t50.5 325q0 204 -101 321t-277 117q-111 0 -207.5 -51t-175.5 -152q-95 -117 -151 -289.5t-56 -344.5zM1593 858q0 -177 -66 -345t-188 -300q-115 -126 -267 -190t-335 -64
q-284 0 -455 173.5t-171 461.5q0 168 61 327t176 291q130 147 288.5 221t342.5 74q279 0 446.5 -177.5t167.5 -471.5zM1387 1896q-20 -99 -68.5 -151t-121.5 -52q-17 0 -35.5 3t-42.5 10l-131 32q-24 6 -38 8.5t-22 2.5q-33 0 -52.5 -19.5t-27.5 -58.5h-61q14 99 59.5 150
t120.5 51q15 -1 31 -3t41 -8l128 -34q22 -6 36 -8.5t22 -2.5q42 0 65.5 18.5t35.5 61.5h61z" />
    <glyph glyph-name="Odieresis" unicode="&#xd6;" 
d="M373 537q0 -208 102 -323.5t285 -115.5q120 0 211.5 52.5t175.5 168.5q93 131 143.5 292t50.5 325q0 204 -101 321t-277 117q-111 0 -207.5 -51t-175.5 -152q-95 -117 -151 -289.5t-56 -344.5zM1593 858q0 -177 -66 -345t-188 -300q-115 -126 -267 -190t-335 -64
q-284 0 -455 173.5t-171 461.5q0 168 61 327t176 291q130 147 288.5 221t342.5 74q279 0 446.5 -177.5t167.5 -471.5zM1156 1781q0 42 32.5 74.5t73.5 32.5q44 0 76.5 -31.5t32.5 -75.5q0 -47 -31 -77.5t-78 -30.5q-45 0 -75.5 31t-30.5 77zM803 1781q0 42 32.5 74.5
t74.5 32.5q44 0 76 -31.5t32 -75.5q0 -47 -30.5 -77.5t-77.5 -30.5q-46 0 -76.5 31t-30.5 77z" />
    <glyph glyph-name="multiply" unicode="&#xd7;" 
d="M391 1178l469 -469l469 469l98 -99l-469 -469l469 -469l-98 -96l-469 467l-469 -467l-98 96l469 469l-469 469z" />
    <glyph glyph-name="Oslash" unicode="&#xd8;" 
d="M195 -256l186 309q-130 79 -200 217.5t-70 317.5q0 171 61 331.5t176 292.5q128 145 287 220t336 75q60 0 123.5 -10t134.5 -31l102 174h127l-137 -223q136 -92 204 -232t68 -327q0 -183 -72 -358.5t-202 -306.5q-115 -117 -261.5 -176.5t-318.5 -59.5q-72 0 -138 12
t-128 37l-158 -262h-120zM1229 1266l-670 -1116q48 -28 95 -41t98 -13q121 0 215 53.5t178 169.5q94 132 145 292t51 323q0 120 -27.5 202t-84.5 130zM477 215l670 1116q-42 22 -85 32.5t-89 10.5q-116 0 -213.5 -50t-179.5 -153q-94 -119 -150.5 -288.5t-56.5 -335.5
q0 -118 26 -201.5t78 -130.5z" />
    <glyph glyph-name="Ugrave" unicode="&#xd9;" 
d="M1325 506q-75 -281 -222.5 -413t-385.5 -132q-231 0 -361.5 108t-130.5 298q0 54 13.5 127t44.5 186l127 476q7 28 10.5 53t3.5 46q0 48 -38.5 67t-137.5 19h-21l35 134h660l-35 -134h-41q-88 0 -126.5 -25.5t-57.5 -94.5l-166 -609q-21 -78 -31 -136t-10 -99
q0 -127 80 -193.5t231 -66.5q157 0 260 106.5t162 331.5l158 600l2 9q16 65 16 87q0 50 -34.5 70t-125.5 20h-35l35 134h518l-32 -134h-19q-69 0 -103 -26t-52 -94zM1231 1620h-80l-266 196q-29 22 -44 43.5t-15 42.5q0 33 21.5 54.5t54.5 21.5q21 0 42.5 -13t41.5 -36z" />
    <glyph glyph-name="Uacute" unicode="&#xda;" 
d="M1325 506q-75 -281 -222.5 -413t-385.5 -132q-231 0 -361.5 108t-130.5 298q0 54 13.5 127t44.5 186l127 476q7 28 10.5 53t3.5 46q0 48 -38.5 67t-137.5 19h-21l35 134h660l-35 -134h-41q-88 0 -126.5 -25.5t-57.5 -94.5l-166 -609q-21 -78 -31 -136t-10 -99
q0 -127 80 -193.5t231 -66.5q157 0 260 106.5t162 331.5l158 600l2 9q16 65 16 87q0 50 -34.5 70t-125.5 20h-35l35 134h518l-32 -134h-19q-69 0 -103 -26t-52 -94zM971 1620h-88l293 295q31 31 60 47t53 16q35 0 57.5 -23t22.5 -59q0 -23 -16.5 -42.5t-59.5 -45.5z" />
    <glyph glyph-name="Ucircumflex" unicode="&#xdb;" 
d="M1325 506q-75 -281 -222.5 -413t-385.5 -132q-231 0 -361.5 108t-130.5 298q0 54 13.5 127t44.5 186l127 476q7 28 10.5 53t3.5 46q0 48 -38.5 67t-137.5 19h-21l35 134h660l-35 -134h-41q-88 0 -126.5 -25.5t-57.5 -94.5l-166 -609q-21 -78 -31 -136t-10 -99
q0 -127 80 -193.5t231 -66.5q157 0 260 106.5t162 331.5l158 600l2 9q16 65 16 87q0 50 -34.5 70t-125.5 20h-35l35 134h518l-32 -134h-19q-69 0 -103 -26t-52 -94zM1336 1620h-74l-166 194l-252 -194h-96l309 348h113z" />
    <glyph glyph-name="Udieresis" unicode="&#xdc;" 
d="M1325 506q-75 -281 -222.5 -413t-385.5 -132q-231 0 -361.5 108t-130.5 298q0 54 13.5 127t44.5 186l127 476q7 28 10.5 53t3.5 46q0 48 -38.5 67t-137.5 19h-21l35 134h660l-35 -134h-41q-88 0 -126.5 -25.5t-57.5 -94.5l-166 -609q-21 -78 -31 -136t-10 -99
q0 -127 80 -193.5t231 -66.5q157 0 260 106.5t162 331.5l158 600l2 9q16 65 16 87q0 50 -34.5 70t-125.5 20h-35l35 134h518l-32 -134h-19q-69 0 -103 -26t-52 -94zM1156 1781q0 42 32.5 74.5t73.5 32.5q44 0 76.5 -31.5t32.5 -75.5q0 -47 -31 -77.5t-78 -30.5
q-45 0 -75.5 31t-30.5 77zM803 1781q0 42 32.5 74.5t74.5 32.5q44 0 76 -31.5t32 -75.5q0 -47 -30.5 -77.5t-77.5 -30.5q-46 0 -76.5 31t-30.5 77z" />
    <glyph glyph-name="Yacute" unicode="&#xdd;" horiz-adv-x="1440" 
d="M201 0l30 133h39q88 0 129 26.5t60 94.5l86 330l-209 575q-42 109 -87 145.5t-128 36.5h-23l35 134h594l-35 -134h-20q-68 0 -99.5 -18.5t-31.5 -58.5q0 -20 3.5 -40.5t10.5 -39.5l168 -463l315 383q35 42 53.5 79.5t18.5 65.5q0 49 -40.5 70.5t-129.5 21.5l33 134h581
l-32 -134h-6q-58 0 -106 -26.5t-97 -87.5l-541 -662l-65 -246q-10 -36 -14.5 -59.5t-4.5 -36.5q0 -51 35 -71.5t125 -20.5q8 0 25 1t28 1l-35 -133h-665zM837 1620h-88l293 295q31 31 60 47t53 16q35 0 57.5 -23t22.5 -59q0 -23 -16.5 -42.5t-59.5 -45.5z" />
    <glyph glyph-name="Thorn" unicode="&#xde;" horiz-adv-x="1415" 
d="M489 475h177q208 0 311.5 83t103.5 251q0 111 -65.5 168t-192.5 57q-123 0 -164 -25.5t-59 -97.5zM668 1165h139q142 0 216.5 -12t131.5 -39q90 -45 137 -123t47 -182q0 -111 -51 -204t-149 -159q-80 -54 -188.5 -78t-301.5 -24h-190q-12 -49 -17.5 -78t-5.5 -45
q0 -49 34 -69.5t116 -20.5q7 0 22.5 1t24.5 1l-37 -133h-596l33 133h18q69 0 103 26.5t51 94.5l235 901q6 24 9.5 49.5t3.5 50.5q0 48 -39 67t-144 19l33 134h637l-33 -134h-33q-89 0 -125.5 -22.5t-62.5 -97.5z" />
    <glyph glyph-name="germandbls" unicode="&#xdf;" horiz-adv-x="1323" 
d="M678 985q6 -1 14 -1.5t23 -0.5q120 0 194 68t74 178q0 95 -61 152t-162 57q-111 0 -174.5 -71t-106.5 -249l-217 -917q-75 -316 -181 -453t-269 -137q-98 0 -158 46t-60 120q0 58 31.5 93.5t83.5 35.5q48 0 77.5 -29t29.5 -76q0 -20 -9.5 -40t-9.5 -21q0 -7 14 -13t33 -6
q69 0 120.5 105t117.5 399l203 893q49 220 165.5 324t313.5 104q193 0 309.5 -85t116.5 -224q0 -137 -91 -219.5t-276 -112.5q160 -38 241 -135.5t81 -251.5q0 -91 -25.5 -176t-75.5 -160q-70 -105 -178 -165t-227 -60q-131 0 -209 53t-78 140q0 62 33.5 100.5t87.5 38.5
q56 0 88.5 -30t32.5 -81q0 -22 -9.5 -45t-9.5 -24q0 -13 19 -25t43 -12q113 0 198 145.5t85 353.5q0 139 -64 208.5t-201 80.5z" />
    <glyph glyph-name="agrave" unicode="&#xe0;" horiz-adv-x="1360" 
d="M723 154q-88 -98 -179 -146.5t-186 -48.5q-142 0 -231.5 117.5t-89.5 308.5q0 142 48 281t136 252q89 112 196 172.5t218 60.5q105 0 176.5 -56t118.5 -175l55 213h195l-234 -844l-1 -3q-17 -64 -17 -89q0 -33 15.5 -52.5t41.5 -19.5q43 0 91.5 51t101.5 150h114
q-81 -180 -177.5 -270.5t-205.5 -90.5q-79 0 -124 45.5t-62 143.5zM672 1012q-78 0 -151.5 -50t-135.5 -145q-66 -101 -104.5 -228.5t-38.5 -246.5q0 -115 52 -180.5t142 -65.5q70 0 135.5 40.5t124.5 119.5q75 100 122.5 243t47.5 265q0 114 -52.5 181t-141.5 67zM950 1264
h-80l-266 196q-29 22 -44 43.5t-15 42.5q0 33 21.5 54.5t54.5 21.5q21 0 42.5 -13t41.5 -36z" />
    <glyph glyph-name="aacute" unicode="&#xe1;" horiz-adv-x="1360" 
d="M723 154q-88 -98 -179 -146.5t-186 -48.5q-142 0 -231.5 117.5t-89.5 308.5q0 142 48 281t136 252q89 112 196 172.5t218 60.5q105 0 176.5 -56t118.5 -175l55 213h195l-234 -844l-1 -3q-17 -64 -17 -89q0 -33 15.5 -52.5t41.5 -19.5q43 0 91.5 51t101.5 150h114
q-81 -180 -177.5 -270.5t-205.5 -90.5q-79 0 -124 45.5t-62 143.5zM672 1012q-78 0 -151.5 -50t-135.5 -145q-66 -101 -104.5 -228.5t-38.5 -246.5q0 -115 52 -180.5t142 -65.5q70 0 135.5 40.5t124.5 119.5q75 100 122.5 243t47.5 265q0 114 -52.5 181t-141.5 67zM690 1264
h-88l293 295q31 31 60 47t53 16q35 0 57.5 -23t22.5 -59q0 -23 -16.5 -42.5t-59.5 -45.5z" />
    <glyph glyph-name="acircumflex" unicode="&#xe2;" horiz-adv-x="1360" 
d="M723 154q-88 -98 -179 -146.5t-186 -48.5q-142 0 -231.5 117.5t-89.5 308.5q0 142 48 281t136 252q89 112 196 172.5t218 60.5q105 0 176.5 -56t118.5 -175l55 213h195l-234 -844l-1 -3q-17 -64 -17 -89q0 -33 15.5 -52.5t41.5 -19.5q43 0 91.5 51t101.5 150h114
q-81 -180 -177.5 -270.5t-205.5 -90.5q-79 0 -124 45.5t-62 143.5zM672 1012q-78 0 -151.5 -50t-135.5 -145q-66 -101 -104.5 -228.5t-38.5 -246.5q0 -115 52 -180.5t142 -65.5q70 0 135.5 40.5t124.5 119.5q75 100 122.5 243t47.5 265q0 114 -52.5 181t-141.5 67z
M1055 1264h-74l-166 194l-252 -194h-96l309 348h113z" />
    <glyph glyph-name="atilde" unicode="&#xe3;" horiz-adv-x="1360" 
d="M723 154q-88 -98 -179 -146.5t-186 -48.5q-142 0 -231.5 117.5t-89.5 308.5q0 142 48 281t136 252q89 112 196 172.5t218 60.5q105 0 176.5 -56t118.5 -175l55 213h195l-234 -844l-1 -3q-17 -64 -17 -89q0 -33 15.5 -52.5t41.5 -19.5q43 0 91.5 51t101.5 150h114
q-81 -180 -177.5 -270.5t-205.5 -90.5q-79 0 -124 45.5t-62 143.5zM672 1012q-78 0 -151.5 -50t-135.5 -145q-66 -101 -104.5 -228.5t-38.5 -246.5q0 -115 52 -180.5t142 -65.5q70 0 135.5 40.5t124.5 119.5q75 100 122.5 243t47.5 265q0 114 -52.5 181t-141.5 67z
M1106 1540q-20 -99 -68.5 -151t-121.5 -52q-17 0 -35.5 3t-42.5 10l-131 32q-24 6 -38 8.5t-22 2.5q-33 0 -52.5 -19.5t-27.5 -58.5h-61q14 99 59.5 150t120.5 51q15 -1 31 -3t41 -8l128 -34q22 -6 36 -8.5t22 -2.5q42 0 65.5 18.5t35.5 61.5h61z" />
    <glyph glyph-name="adieresis" unicode="&#xe4;" horiz-adv-x="1360" 
d="M723 154q-88 -98 -179 -146.5t-186 -48.5q-142 0 -231.5 117.5t-89.5 308.5q0 142 48 281t136 252q89 112 196 172.5t218 60.5q105 0 176.5 -56t118.5 -175l55 213h195l-234 -844l-1 -3q-17 -64 -17 -89q0 -33 15.5 -52.5t41.5 -19.5q43 0 91.5 51t101.5 150h114
q-81 -180 -177.5 -270.5t-205.5 -90.5q-79 0 -124 45.5t-62 143.5zM672 1012q-78 0 -151.5 -50t-135.5 -145q-66 -101 -104.5 -228.5t-38.5 -246.5q0 -115 52 -180.5t142 -65.5q70 0 135.5 40.5t124.5 119.5q75 100 122.5 243t47.5 265q0 114 -52.5 181t-141.5 67zM875 1425
q0 42 32.5 74.5t73.5 32.5q44 0 76.5 -31.5t32.5 -75.5q0 -47 -31 -77.5t-78 -30.5q-45 0 -75.5 31t-30.5 77zM522 1425q0 42 32.5 74.5t74.5 32.5q44 0 76 -31.5t32 -75.5q0 -47 -30.5 -77.5t-77.5 -30.5q-46 0 -76.5 31t-30.5 77z" />
    <glyph glyph-name="aring" unicode="&#xe5;" horiz-adv-x="1360" 
d="M631 1464q0 -63 43 -106t106 -43q62 0 106 43.5t44 105.5q0 63 -44 106.5t-106 43.5q-63 0 -106 -43.5t-43 -106.5zM532 1464q0 105 72 176.5t176 71.5q105 0 176.5 -71.5t71.5 -176.5q0 -104 -71.5 -175.5t-176.5 -71.5q-104 0 -176 71.5t-72 175.5zM672 1012
q-78 0 -151.5 -50t-135.5 -145q-66 -101 -104.5 -228.5t-38.5 -246.5q0 -115 52 -180.5t142 -65.5q70 0 135.5 40.5t124.5 119.5q75 100 122.5 243t47.5 265q0 114 -52.5 181t-141.5 67zM723 154q-88 -98 -179 -146.5t-186 -48.5q-142 0 -231.5 117.5t-89.5 308.5
q0 142 48 281t136 252q89 112 196 172.5t218 60.5q105 0 176.5 -56t118.5 -175l55 213h195l-234 -844l-1 -3q-17 -64 -17 -89q0 -33 15.5 -52.5t41.5 -19.5q43 0 91.5 51t101.5 150h114q-81 -180 -177.5 -270.5t-205.5 -90.5q-79 0 -124 45.5t-62 143.5z" />
    <glyph glyph-name="ae" unicode="&#xe6;" horiz-adv-x="1872" 
d="M786 244q-104 -142 -211 -213.5t-213 -71.5q-145 0 -235 117.5t-90 308.5q0 142 48 281t136 252q87 110 193 172.5t207 62.5q102 0 171 -58.5t105 -174.5l49 198h193l-43 -155q91 99 177.5 144.5t182.5 45.5q120 0 197.5 -69t77.5 -177q0 -171 -189.5 -278.5
t-535.5 -130.5q-11 -38 -16 -73t-5 -67q0 -121 64 -193.5t172 -72.5q103 0 198.5 66.5t177.5 195.5l121 -4q-100 -190 -231.5 -286.5t-290.5 -96.5q-135 0 -240 71t-170 206zM1024 598q235 15 368.5 94t133.5 201q0 68 -37.5 107.5t-102.5 39.5q-110 0 -205 -115.5
t-157 -326.5zM639 1012q-73 0 -141 -49.5t-125 -145.5q-62 -104 -97.5 -231t-35.5 -244q0 -115 48.5 -180.5t133.5 -65.5q64 0 124 40t116 120q70 102 114.5 245t44.5 265q0 112 -50 179t-132 67z" />
    <glyph glyph-name="ccedilla" unicode="&#xe7;" horiz-adv-x="1155" 
d="M967 319q-83 -173 -210 -264.5t-286 -91.5q-194 0 -315 132.5t-121 346.5q0 163 56.5 303.5t164.5 243.5q82 81 184 122.5t217 41.5q160 0 261.5 -84.5t101.5 -214.5q0 -82 -42.5 -132t-111.5 -50q-59 0 -98 34.5t-39 86.5q0 28 15 55.5t42 48.5q13 10 41.5 23.5
t28.5 25.5q0 36 -54 68.5t-126 32.5q-187 0 -302.5 -182t-115.5 -480q0 -148 64.5 -228.5t183.5 -80.5q92 0 177.5 61t164.5 182h119zM134 -379l36 90q60 -38 120 -58t112 -20q56 0 84.5 23t28.5 68q0 41 -27 63.5t-78 22.5q-14 0 -36 -2.5t-62 -8.5l65 201h66l-37 -115
q11 2 24 3t37 1q90 0 139.5 -43.5t49.5 -121.5q0 -85 -59 -132t-166 -47q-57 0 -130 19t-167 57z" />
    <glyph glyph-name="egrave" unicode="&#xe8;" horiz-adv-x="1114" 
d="M958 350q-101 -191 -231.5 -287t-288.5 -96q-190 0 -305 122.5t-115 326.5q0 167 64.5 312.5t187.5 258.5q89 81 193 124.5t209 43.5q137 0 219 -67.5t82 -180.5q0 -171 -189.5 -278.5t-535.5 -130.5q-12 -45 -17.5 -79.5t-5.5 -60.5q0 -121 65 -193.5t173 -72.5
q103 0 199 67t178 195zM266 598q236 15 369 94t133 201q0 68 -37.5 107.5t-101.5 39.5q-111 0 -206 -115.5t-157 -326.5zM860 1264h-80l-266 196q-29 22 -44 43.5t-15 42.5q0 33 21.5 54.5t54.5 21.5q21 0 42.5 -13t41.5 -36z" />
    <glyph glyph-name="eacute" unicode="&#xe9;" horiz-adv-x="1114" 
d="M958 350q-101 -191 -231.5 -287t-288.5 -96q-190 0 -305 122.5t-115 326.5q0 167 64.5 312.5t187.5 258.5q89 81 193 124.5t209 43.5q137 0 219 -67.5t82 -180.5q0 -171 -189.5 -278.5t-535.5 -130.5q-12 -45 -17.5 -79.5t-5.5 -60.5q0 -121 65 -193.5t173 -72.5
q103 0 199 67t178 195zM266 598q236 15 369 94t133 201q0 68 -37.5 107.5t-101.5 39.5q-111 0 -206 -115.5t-157 -326.5zM600 1264h-88l293 295q31 31 60 47t53 16q35 0 57.5 -23t22.5 -59q0 -23 -16.5 -42.5t-59.5 -45.5z" />
    <glyph glyph-name="ecircumflex" unicode="&#xea;" horiz-adv-x="1114" 
d="M958 350q-101 -191 -231.5 -287t-288.5 -96q-190 0 -305 122.5t-115 326.5q0 167 64.5 312.5t187.5 258.5q89 81 193 124.5t209 43.5q137 0 219 -67.5t82 -180.5q0 -171 -189.5 -278.5t-535.5 -130.5q-12 -45 -17.5 -79.5t-5.5 -60.5q0 -121 65 -193.5t173 -72.5
q103 0 199 67t178 195zM266 598q236 15 369 94t133 201q0 68 -37.5 107.5t-101.5 39.5q-111 0 -206 -115.5t-157 -326.5zM965 1264h-74l-166 194l-252 -194h-96l309 348h113z" />
    <glyph glyph-name="edieresis" unicode="&#xeb;" horiz-adv-x="1114" 
d="M958 350q-101 -191 -231.5 -287t-288.5 -96q-190 0 -305 122.5t-115 326.5q0 167 64.5 312.5t187.5 258.5q89 81 193 124.5t209 43.5q137 0 219 -67.5t82 -180.5q0 -171 -189.5 -278.5t-535.5 -130.5q-12 -45 -17.5 -79.5t-5.5 -60.5q0 -121 65 -193.5t173 -72.5
q103 0 199 67t178 195zM266 598q236 15 369 94t133 201q0 68 -37.5 107.5t-101.5 39.5q-111 0 -206 -115.5t-157 -326.5zM785 1425q0 42 32.5 74.5t73.5 32.5q44 0 76.5 -31.5t32.5 -75.5q0 -47 -31 -77.5t-78 -30.5q-45 0 -75.5 31t-30.5 77zM432 1425q0 42 32.5 74.5
t74.5 32.5q44 0 76 -31.5t32 -75.5q0 -47 -30.5 -77.5t-77.5 -30.5q-46 0 -76.5 31t-30.5 77z" />
    <glyph glyph-name="igrave" unicode="&#xec;" horiz-adv-x="811" 
d="M692 326q-82 -181 -177.5 -271t-205.5 -90q-82 0 -128 50t-46 139q0 57 20 142.5t58 186.5q19 51 52 139q87 233 87 279q0 34 -11 49t-36 15q-46 0 -94 -45t-111 -148h-114q87 171 190 264.5t201 93.5q78 0 122 -50.5t44 -141.5q0 -51 -21.5 -132.5t-97.5 -293.5
q-56 -154 -75 -219.5t-19 -95.5q0 -34 15.5 -52t43.5 -18q43 0 89.5 49t101.5 150h112zM626 1264h-80l-266 196q-29 22 -44 43.5t-15 42.5q0 33 21.5 54.5t54.5 21.5q21 0 42.5 -13t41.5 -36z" />
    <glyph glyph-name="iacute" unicode="&#xed;" horiz-adv-x="811" 
d="M692 326q-82 -181 -177.5 -271t-205.5 -90q-82 0 -128 50t-46 139q0 57 20 142.5t58 186.5q19 51 52 139q87 233 87 279q0 34 -11 49t-36 15q-46 0 -94 -45t-111 -148h-114q87 171 190 264.5t201 93.5q78 0 122 -50.5t44 -141.5q0 -51 -21.5 -132.5t-97.5 -293.5
q-56 -154 -75 -219.5t-19 -95.5q0 -34 15.5 -52t43.5 -18q43 0 89.5 49t101.5 150h112zM366 1264h-88l293 295q31 31 60 47t53 16q35 0 57.5 -23t22.5 -59q0 -23 -16.5 -42.5t-59.5 -45.5z" />
    <glyph glyph-name="icircumflex" unicode="&#xee;" horiz-adv-x="811" 
d="M692 326q-82 -181 -177.5 -271t-205.5 -90q-82 0 -128 50t-46 139q0 57 20 142.5t58 186.5q19 51 52 139q87 233 87 279q0 34 -11 49t-36 15q-46 0 -94 -45t-111 -148h-114q87 171 190 264.5t201 93.5q78 0 122 -50.5t44 -141.5q0 -51 -21.5 -132.5t-97.5 -293.5
q-56 -154 -75 -219.5t-19 -95.5q0 -34 15.5 -52t43.5 -18q43 0 89.5 49t101.5 150h112zM731 1264h-74l-166 194l-252 -194h-96l309 348h113z" />
    <glyph glyph-name="idieresis" unicode="&#xef;" horiz-adv-x="811" 
d="M692 326q-82 -181 -177.5 -271t-205.5 -90q-82 0 -128 50t-46 139q0 57 20 142.5t58 186.5q19 51 52 139q87 233 87 279q0 34 -11 49t-36 15q-46 0 -94 -45t-111 -148h-114q87 171 190 264.5t201 93.5q78 0 122 -50.5t44 -141.5q0 -51 -21.5 -132.5t-97.5 -293.5
q-56 -154 -75 -219.5t-19 -95.5q0 -34 15.5 -52t43.5 -18q43 0 89.5 49t101.5 150h112zM551 1425q0 42 32.5 74.5t73.5 32.5q44 0 76.5 -31.5t32.5 -75.5q0 -47 -31 -77.5t-78 -30.5q-45 0 -75.5 31t-30.5 77zM198 1425q0 42 32.5 74.5t74.5 32.5q44 0 76 -31.5t32 -75.5
q0 -47 -30.5 -77.5t-77.5 -30.5q-46 0 -76.5 31t-30.5 77z" />
    <glyph glyph-name="eth" unicode="&#xf0;" horiz-adv-x="1241" 
d="M834 1307q138 -195 198 -349t60 -309q0 -140 -42.5 -261.5t-123.5 -215.5q-87 -99 -206 -154t-247 -55q-195 0 -316.5 122.5t-121.5 322.5q0 150 56.5 280.5t164.5 226.5q84 75 181.5 113.5t203.5 38.5q45 0 85.5 -9.5t78.5 -29.5q-25 59 -53 115t-62 112l-297 -114
l-37 86l293 106l-21 37q-49 83 -75 129l92 55q58 -70 86.5 -105.5t48.5 -62.5l289 111l33 -86zM260 381q0 -146 59 -224.5t168 -78.5q82 0 149.5 44.5t123.5 133.5q52 84 82 197t30 225q0 139 -56.5 209.5t-168.5 70.5q-160 0 -273.5 -165.5t-113.5 -411.5z" />
    <glyph glyph-name="ntilde" unicode="&#xf1;" horiz-adv-x="1360" 
d="M268 0h-205l154 502q57 186 78.5 272.5t21.5 124.5q0 30 -11.5 48t-31.5 18q-51 0 -100.5 -44.5t-112.5 -148.5h-112q86 169 189.5 263.5t199.5 94.5q76 0 116 -48.5t40 -141.5q0 -20 -3 -46t-8 -56q104 153 199.5 224t198.5 71q98 0 158.5 -61t60.5 -161
q0 -107 -96 -369l-11 -30q-54 -149 -74 -217t-20 -98q0 -33 15.5 -51.5t41.5 -18.5q42 0 98 60.5t113 168.5h113q-94 -200 -192 -295.5t-209 -95.5q-82 0 -128 50t-46 139q0 59 22 148t68 215q11 30 32 85q84 223 84 301q0 48 -26 73t-76 25q-152 0 -294.5 -262t-246.5 -739
zM1133 1540q-20 -99 -68.5 -151t-121.5 -52q-17 0 -35.5 3t-42.5 10l-131 32q-24 6 -38 8.5t-22 2.5q-33 0 -52.5 -19.5t-27.5 -58.5h-61q14 99 59.5 150t120.5 51q15 -1 31 -3t41 -8l128 -34q22 -6 36 -8.5t22 -2.5q42 0 65.5 18.5t35.5 61.5h61z" />
    <glyph glyph-name="ograve" unicode="&#xf2;" horiz-adv-x="1241" 
d="M1092 680q0 -136 -44 -265t-122 -227q-88 -107 -206 -165t-249 -58q-195 0 -315.5 131.5t-120.5 345.5q0 163 56.5 303.5t164.5 243.5q84 82 186.5 123t219.5 41q195 0 312.5 -129t117.5 -344zM492 76q78 0 145.5 49t122.5 147q53 95 82.5 217t29.5 246
q0 154 -56.5 230.5t-168.5 76.5q-160 0 -273.5 -181t-113.5 -451q0 -161 60.5 -247.5t171.5 -86.5zM891 1264h-80l-266 196q-29 22 -44 43.5t-15 42.5q0 33 21.5 54.5t54.5 21.5q21 0 42.5 -13t41.5 -36z" />
    <glyph glyph-name="oacute" unicode="&#xf3;" horiz-adv-x="1241" 
d="M1092 680q0 -136 -44 -265t-122 -227q-88 -107 -206 -165t-249 -58q-195 0 -315.5 131.5t-120.5 345.5q0 163 56.5 303.5t164.5 243.5q84 82 186.5 123t219.5 41q195 0 312.5 -129t117.5 -344zM492 76q78 0 145.5 49t122.5 147q53 95 82.5 217t29.5 246
q0 154 -56.5 230.5t-168.5 76.5q-160 0 -273.5 -181t-113.5 -451q0 -161 60.5 -247.5t171.5 -86.5zM631 1264h-88l293 295q31 31 60 47t53 16q35 0 57.5 -23t22.5 -59q0 -23 -16.5 -42.5t-59.5 -45.5z" />
    <glyph glyph-name="ocircumflex" unicode="&#xf4;" horiz-adv-x="1241" 
d="M1092 680q0 -136 -44 -265t-122 -227q-88 -107 -206 -165t-249 -58q-195 0 -315.5 131.5t-120.5 345.5q0 163 56.5 303.5t164.5 243.5q84 82 186.5 123t219.5 41q195 0 312.5 -129t117.5 -344zM492 76q78 0 145.5 49t122.5 147q53 95 82.5 217t29.5 246
q0 154 -56.5 230.5t-168.5 76.5q-160 0 -273.5 -181t-113.5 -451q0 -161 60.5 -247.5t171.5 -86.5zM996 1264h-74l-166 194l-252 -194h-96l309 348h113z" />
    <glyph glyph-name="otilde" unicode="&#xf5;" horiz-adv-x="1241" 
d="M1092 680q0 -136 -44 -265t-122 -227q-88 -107 -206 -165t-249 -58q-195 0 -315.5 131.5t-120.5 345.5q0 163 56.5 303.5t164.5 243.5q84 82 186.5 123t219.5 41q195 0 312.5 -129t117.5 -344zM492 76q78 0 145.5 49t122.5 147q53 95 82.5 217t29.5 246
q0 154 -56.5 230.5t-168.5 76.5q-160 0 -273.5 -181t-113.5 -451q0 -161 60.5 -247.5t171.5 -86.5zM1047 1540q-20 -99 -68.5 -151t-121.5 -52q-17 0 -35.5 3t-42.5 10l-131 32q-24 6 -38 8.5t-22 2.5q-33 0 -52.5 -19.5t-27.5 -58.5h-61q14 99 59.5 150t120.5 51
q15 -1 31 -3t41 -8l128 -34q22 -6 36 -8.5t22 -2.5q42 0 65.5 18.5t35.5 61.5h61z" />
    <glyph glyph-name="odieresis" unicode="&#xf6;" horiz-adv-x="1241" 
d="M1092 680q0 -136 -44 -265t-122 -227q-88 -107 -206 -165t-249 -58q-195 0 -315.5 131.5t-120.5 345.5q0 163 56.5 303.5t164.5 243.5q84 82 186.5 123t219.5 41q195 0 312.5 -129t117.5 -344zM492 76q78 0 145.5 49t122.5 147q53 95 82.5 217t29.5 246
q0 154 -56.5 230.5t-168.5 76.5q-160 0 -273.5 -181t-113.5 -451q0 -161 60.5 -247.5t171.5 -86.5zM816 1425q0 42 32.5 74.5t73.5 32.5q44 0 76.5 -31.5t32.5 -75.5q0 -47 -31 -77.5t-78 -30.5q-45 0 -75.5 31t-30.5 77zM463 1425q0 42 32.5 74.5t74.5 32.5q44 0 76 -31.5
t32 -75.5q0 -47 -30.5 -77.5t-77.5 -30.5q-46 0 -76.5 31t-30.5 77z" />
    <glyph glyph-name="divide" unicode="&#xf7;" 
d="M854 367q51 0 88 -37t37 -88q0 -52 -36.5 -88.5t-88.5 -36.5q-53 0 -89 36t-36 89q0 51 37 88t88 37zM254 680h1198v-139h-1198v139zM854 1106q51 0 88 -37.5t37 -89.5q0 -51 -36.5 -88t-88.5 -37t-88.5 36.5t-36.5 88.5t37 89.5t88 37.5z" />
    <glyph glyph-name="oslash" unicode="&#xf8;" horiz-adv-x="1241" 
d="M240 27q-103 67 -153 170.5t-50 246.5q0 164 56 303.5t163 241.5q83 80 185 122t212 42q32 0 68 -5t80 -15l121 241h110l-143 -280q98 -63 150.5 -169.5t52.5 -244.5q0 -137 -44 -266.5t-122 -225.5q-88 -108 -205 -166.5t-248 -58.5q-35 0 -70.5 6t-74.5 19l-152 -299
h-108zM385 102q28 -13 55 -19.5t58 -6.5q73 0 140.5 50.5t121.5 145.5q52 93 82 215.5t30 243.5q0 82 -12.5 134t-40.5 100zM313 174l432 850q-26 9 -49.5 13.5t-46.5 4.5q-161 0 -275 -179.5t-114 -446.5q0 -88 13 -146t40 -96z" />
    <glyph glyph-name="ugrave" unicode="&#xf9;" horiz-adv-x="1360" 
d="M-37 772q88 183 183.5 272t203.5 89q82 0 128 -50t46 -139q0 -61 -23 -153.5t-69 -215.5q-11 -30 -31 -84q-88 -235 -88 -298q0 -46 28 -71.5t79 -25.5q154 0 297.5 267.5t249.5 754.5h207l-162 -522q-58 -187 -79.5 -273t-21.5 -124q0 -31 13 -48.5t37 -17.5
q54 0 110 58.5t103 164.5h114q-73 -175 -183.5 -282t-213.5 -107q-76 0 -116 49t-40 142q0 20 2.5 45t7.5 57q-102 -153 -197.5 -224t-199.5 -71q-98 0 -158.5 61t-60.5 160q0 108 96 370l11 30q55 154 74.5 219.5t19.5 95.5q0 33 -16.5 51.5t-45.5 18.5q-41 0 -89 -50
t-101 -149h-115zM950 1264h-80l-266 196q-29 22 -44 43.5t-15 42.5q0 33 21.5 54.5t54.5 21.5q21 0 42.5 -13t41.5 -36z" />
    <glyph glyph-name="uacute" unicode="&#xfa;" horiz-adv-x="1360" 
d="M-37 772q88 183 183.5 272t203.5 89q82 0 128 -50t46 -139q0 -61 -23 -153.5t-69 -215.5q-11 -30 -31 -84q-88 -235 -88 -298q0 -46 28 -71.5t79 -25.5q154 0 297.5 267.5t249.5 754.5h207l-162 -522q-58 -187 -79.5 -273t-21.5 -124q0 -31 13 -48.5t37 -17.5
q54 0 110 58.5t103 164.5h114q-73 -175 -183.5 -282t-213.5 -107q-76 0 -116 49t-40 142q0 20 2.5 45t7.5 57q-102 -153 -197.5 -224t-199.5 -71q-98 0 -158.5 61t-60.5 160q0 108 96 370l11 30q55 154 74.5 219.5t19.5 95.5q0 33 -16.5 51.5t-45.5 18.5q-41 0 -89 -50
t-101 -149h-115zM690 1264h-88l293 295q31 31 60 47t53 16q35 0 57.5 -23t22.5 -59q0 -23 -16.5 -42.5t-59.5 -45.5z" />
    <glyph glyph-name="ucircumflex" unicode="&#xfb;" horiz-adv-x="1360" 
d="M-37 772q88 183 183.5 272t203.5 89q82 0 128 -50t46 -139q0 -61 -23 -153.5t-69 -215.5q-11 -30 -31 -84q-88 -235 -88 -298q0 -46 28 -71.5t79 -25.5q154 0 297.5 267.5t249.5 754.5h207l-162 -522q-58 -187 -79.5 -273t-21.5 -124q0 -31 13 -48.5t37 -17.5
q54 0 110 58.5t103 164.5h114q-73 -175 -183.5 -282t-213.5 -107q-76 0 -116 49t-40 142q0 20 2.5 45t7.5 57q-102 -153 -197.5 -224t-199.5 -71q-98 0 -158.5 61t-60.5 160q0 108 96 370l11 30q55 154 74.5 219.5t19.5 95.5q0 33 -16.5 51.5t-45.5 18.5q-41 0 -89 -50
t-101 -149h-115zM1055 1264h-74l-166 194l-252 -194h-96l309 348h113z" />
    <glyph glyph-name="udieresis" unicode="&#xfc;" horiz-adv-x="1360" 
d="M-37 772q88 183 183.5 272t203.5 89q82 0 128 -50t46 -139q0 -61 -23 -153.5t-69 -215.5q-11 -30 -31 -84q-88 -235 -88 -298q0 -46 28 -71.5t79 -25.5q154 0 297.5 267.5t249.5 754.5h207l-162 -522q-58 -187 -79.5 -273t-21.5 -124q0 -31 13 -48.5t37 -17.5
q54 0 110 58.5t103 164.5h114q-73 -175 -183.5 -282t-213.5 -107q-76 0 -116 49t-40 142q0 20 2.5 45t7.5 57q-102 -153 -197.5 -224t-199.5 -71q-98 0 -158.5 61t-60.5 160q0 108 96 370l11 30q55 154 74.5 219.5t19.5 95.5q0 33 -16.5 51.5t-45.5 18.5q-41 0 -89 -50
t-101 -149h-115zM875 1425q0 42 32.5 74.5t73.5 32.5q44 0 76.5 -31.5t32.5 -75.5q0 -47 -31 -77.5t-78 -30.5q-45 0 -75.5 31t-30.5 77zM522 1425q0 42 32.5 74.5t74.5 32.5q44 0 76 -31.5t32 -75.5q0 -47 -30.5 -77.5t-77.5 -30.5q-46 0 -76.5 31t-30.5 77z" />
    <glyph glyph-name="yacute" unicode="&#xfd;" horiz-adv-x="1290" 
d="M987 1118h180l-243 -946q-75 -291 -218 -427t-376 -136q-145 0 -231.5 54.5t-86.5 141.5q0 56 36 94t87 38q56 0 88.5 -28.5t32.5 -76.5q0 -23 -9 -46.5t-9 -25.5q0 -15 32.5 -30t75.5 -15q146 0 246 124t147 362q-76 -99 -175 -155t-193 -56q-99 0 -159 58.5t-60 156.5
q0 103 93 355q8 23 13 36q54 148 74 214.5t20 94.5q0 33 -17.5 52.5t-45.5 19.5q-38 0 -81 -45t-108 -154h-114q89 181 183.5 268t201.5 87q83 0 129.5 -49t46.5 -136q0 -56 -22.5 -144.5t-67.5 -209.5q-12 -31 -33 -87q-84 -218 -84 -294q0 -48 26 -72t76 -24
q170 0 305 248.5t240 752.5zM655 1264h-88l293 295q31 31 60 47t53 16q35 0 57.5 -23t22.5 -59q0 -23 -16.5 -42.5t-59.5 -45.5z" />
    <glyph glyph-name="thorn" unicode="&#xfe;" horiz-adv-x="1305" 
d="M340 408q0 -148 54.5 -223.5t160.5 -75.5q80 0 145 46t119 140q53 92 82 200.5t29 217.5q0 139 -51.5 211.5t-149.5 72.5q-64 0 -126.5 -38.5t-117.5 -112.5q-67 -90 -106 -208t-39 -230zM340 1178q19 74 25 102.5t6 42.5q0 38 -37 57t-111 19h-76l31 112q122 2 234 9
t215 20l-152 -573q67 87 149 131.5t175 44.5q159 0 252.5 -122.5t93.5 -336.5q0 -132 -43 -259.5t-123 -231.5q-87 -113 -186 -167.5t-220 -54.5q-118 0 -194 65t-100 187l-80 -300q-8 -29 -11.5 -52.5t-3.5 -42.5q0 -54 40.5 -76t142.5 -22l-27 -109h-557l31 113
q90 3 127 27t53 85z" />
    <glyph glyph-name="ydieresis" unicode="&#xff;" horiz-adv-x="1290" 
d="M987 1118h180l-243 -946q-75 -291 -218 -427t-376 -136q-145 0 -231.5 54.5t-86.5 141.5q0 56 36 94t87 38q56 0 88.5 -28.5t32.5 -76.5q0 -23 -9 -46.5t-9 -25.5q0 -15 32.5 -30t75.5 -15q146 0 246 124t147 362q-76 -99 -175 -155t-193 -56q-99 0 -159 58.5t-60 156.5
q0 103 93 355q8 23 13 36q54 148 74 214.5t20 94.5q0 33 -17.5 52.5t-45.5 19.5q-38 0 -81 -45t-108 -154h-114q89 181 183.5 268t201.5 87q83 0 129.5 -49t46.5 -136q0 -56 -22.5 -144.5t-67.5 -209.5q-12 -31 -33 -87q-84 -218 -84 -294q0 -48 26 -72t76 -24
q170 0 305 248.5t240 752.5zM840 1425q0 42 32.5 74.5t73.5 32.5q44 0 76.5 -31.5t32.5 -75.5q0 -47 -31 -77.5t-78 -30.5q-45 0 -75.5 31t-30.5 77zM487 1425q0 42 32.5 74.5t74.5 32.5q44 0 76 -31.5t32 -75.5q0 -47 -30.5 -77.5t-77.5 -30.5q-46 0 -76.5 31t-30.5 77z
" />
    <glyph glyph-name="Cacute" unicode="&#x106;" horiz-adv-x="1554" 
d="M1319 854v14q0 246 -104 376t-300 130q-99 0 -192 -50t-164 -142q-85 -112 -135.5 -285.5t-50.5 -359.5q0 -206 102.5 -323.5t280.5 -117.5q130 0 241 79t207 241l131 -41q-93 -201 -247.5 -307.5t-352.5 -106.5q-285 0 -454.5 173t-169.5 462q0 168 60 332t173 305
q109 133 255.5 206.5t303.5 73.5q59 0 116.5 -11.5t147.5 -45.5q33 -12 83.5 -39.5t68.5 -27.5q29 0 49.5 29t32.5 89h129l-82 -653h-129zM909 1620h-88l293 295q31 31 60 47t53 16q35 0 57.5 -23t22.5 -59q0 -23 -16.5 -42.5t-59.5 -45.5z" />
    <glyph glyph-name="cacute" unicode="&#x107;" horiz-adv-x="1155" 
d="M967 319q-83 -173 -210 -264.5t-286 -91.5q-194 0 -315 132.5t-121 346.5q0 163 56.5 303.5t164.5 243.5q82 81 184 122.5t217 41.5q160 0 261.5 -84.5t101.5 -214.5q0 -82 -42.5 -132t-111.5 -50q-59 0 -98 34.5t-39 86.5q0 28 15 55.5t42 48.5q13 10 41.5 23.5
t28.5 25.5q0 36 -54 68.5t-126 32.5q-187 0 -302.5 -182t-115.5 -480q0 -148 64.5 -228.5t183.5 -80.5q92 0 177.5 61t164.5 182h119zM610 1264h-88l293 295q31 31 60 47t53 16q35 0 57.5 -23t22.5 -59q0 -23 -16.5 -42.5t-59.5 -45.5z" />
    <glyph glyph-name="Ccaron" unicode="&#x10c;" horiz-adv-x="1554" 
d="M1319 854v14q0 246 -104 376t-300 130q-99 0 -192 -50t-164 -142q-85 -112 -135.5 -285.5t-50.5 -359.5q0 -206 102.5 -323.5t280.5 -117.5q130 0 241 79t207 241l131 -41q-93 -201 -247.5 -307.5t-352.5 -106.5q-285 0 -454.5 173t-169.5 462q0 168 60 332t173 305
q109 133 255.5 206.5t303.5 73.5q59 0 116.5 -11.5t147.5 -45.5q33 -12 83.5 -39.5t68.5 -27.5q29 0 49.5 29t32.5 89h129l-82 -653h-129zM768 1968h74l166 -195l251 195h99l-309 -348h-115z" />
    <glyph glyph-name="ccaron" unicode="&#x10d;" horiz-adv-x="1155" 
d="M967 319q-83 -173 -210 -264.5t-286 -91.5q-194 0 -315 132.5t-121 346.5q0 163 56.5 303.5t164.5 243.5q82 81 184 122.5t217 41.5q160 0 261.5 -84.5t101.5 -214.5q0 -82 -42.5 -132t-111.5 -50q-59 0 -98 34.5t-39 86.5q0 28 15 55.5t42 48.5q13 10 41.5 23.5
t28.5 25.5q0 36 -54 68.5t-126 32.5q-187 0 -302.5 -182t-115.5 -480q0 -148 64.5 -228.5t183.5 -80.5q92 0 177.5 61t164.5 182h119zM469 1612h74l166 -195l251 195h99l-309 -348h-115z" />
    <glyph glyph-name="dcroat" unicode="&#x111;" horiz-adv-x="1364" 
d="M723 154q-88 -98 -179 -146.5t-186 -48.5q-142 0 -231.5 117t-89.5 307q0 133 45 263t129 239q86 111 194 172t220 61q105 0 176.5 -56t118.5 -175l86 303h-347l27 96h346q2 9 3 17t1 20q0 38 -36.5 57t-110.5 19h-76l31 112q110 2 222 9t228 20l-75 -254h202l-24 -96
h-207l-252 -901q-1 -4 -2 -9q-16 -61 -16 -83q0 -35 16.5 -54.5t44.5 -19.5q44 0 94 51.5t103 151.5h114q-81 -180 -177.5 -270.5t-205.5 -90.5q-79 0 -124 45.5t-62 143.5zM657 981q-85 0 -166.5 -61.5t-144.5 -174.5q-50 -90 -78 -198t-28 -205q0 -114 52 -180t142 -66
q78 0 150.5 50t134.5 147q61 95 98 215.5t37 222.5q0 114 -54 182t-143 68z" />
    <glyph glyph-name="Gbreve" unicode="&#x11e;" horiz-adv-x="1753" 
d="M1354 940q-24 207 -133 318.5t-285 111.5q-111 0 -205.5 -49t-169.5 -145q-88 -113 -137 -271.5t-49 -335.5q0 -225 101 -342.5t294 -117.5q186 0 317.5 112t131.5 266q0 60 -38.5 83t-162.5 30l33 131h645l-36 -131q-104 -2 -158.5 -57t-92.5 -207l-92 -375h-121v2
q-8 94 -41 94q-3 0 -146 -48t-292 -48q-274 0 -439 179t-165 474q0 165 56 320t163 285q118 144 263 218t308 74q68 0 134 -12t130 -37q36 -12 99 -42.5t90 -30.5q32 0 55 29.5t37 88.5h115l-68 -567h-141zM1450 1937q-89 -150 -181.5 -218.5t-203.5 -68.5q-112 0 -168 71.5
t-57 215.5h61q12 -75 54.5 -110t119.5 -35q93 0 166 34.5t139 110.5h70z" />
    <glyph glyph-name="gbreve" unicode="&#x11f;" horiz-adv-x="1214" 
d="M700 154q-89 -79 -177 -118.5t-175 -39.5q-138 0 -224.5 113.5t-86.5 298.5q0 137 47 271.5t133 244.5q87 110 190 168.5t211 58.5q107 0 179.5 -57t115.5 -174l54 213h178l-246 -961q-73 -286 -212 -423.5t-355 -137.5q-151 0 -245.5 58t-94.5 149q0 51 33.5 85t85.5 34
q56 0 90.5 -29t34.5 -76q0 -23 -14.5 -47.5t-14.5 -26.5q0 -15 37.5 -30t87.5 -15q137 0 230 111t138 330zM664 1012q-76 0 -147 -47.5t-132 -139.5q-64 -97 -101.5 -220t-37.5 -234q0 -112 50 -175t138 -63q68 0 132 39t122 115q73 97 119.5 233.5t46.5 253.5
q0 109 -52 173.5t-138 64.5zM1073 1581q-89 -150 -181.5 -218.5t-203.5 -68.5q-112 0 -168 71.5t-57 215.5h61q12 -75 54.5 -110t119.5 -35q93 0 166 34.5t139 110.5h70z" />
    <glyph glyph-name="Idotaccent" unicode="&#x130;" horiz-adv-x="891" 
d="M455 319q-10 -35 -14.5 -58t-4.5 -38q0 -49 34.5 -69.5t119.5 -20.5h31l-33 -133h-588l33 133h18q69 0 103 26.5t51 94.5l235 901q6 24 9.5 49.5t3.5 50.5q0 47 -37 66.5t-127 19.5h-19l33 134h592l-35 -134h-10q-73 0 -109.5 -26.5t-54.5 -93.5zM565 1781q0 45 35 80
t80 35q47 0 81 -34t34 -81q0 -49 -33 -81.5t-82 -32.5q-47 0 -81 33.5t-34 80.5z" />
    <glyph glyph-name="dotlessi" unicode="&#x131;" horiz-adv-x="811" 
d="M692 326q-82 -181 -177.5 -271t-205.5 -90q-82 0 -128 50t-46 139q0 57 20 142.5t58 186.5q19 51 52 139q87 233 87 279q0 34 -11 49t-36 15q-46 0 -94 -45t-111 -148h-114q87 171 190 264.5t201 93.5q78 0 122 -50.5t44 -141.5q0 -51 -21.5 -132.5t-97.5 -293.5
q-56 -154 -75 -219.5t-19 -95.5q0 -34 15.5 -52t43.5 -18q43 0 89.5 49t101.5 150h112z" />
    <glyph glyph-name="Lslash" unicode="&#x141;" horiz-adv-x="1391" 
d="M305 602l-366 -203l43 164l366 203l101 390q7 28 10.5 53t3.5 46q0 47 -37 66.5t-129 19.5h-18l34 134h652l-35 -134q-10 0 -26.5 1t-22.5 1q-89 0 -128 -26.5t-57 -95.5l-86 -330l383 211l-43 -164l-381 -211l-106 -408q-8 -29 -12.5 -53.5t-4.5 -42.5q0 -51 34.5 -70.5
t150.5 -19.5h98q188 0 291.5 95t165.5 327h157l-153 -555h-1182l35 133h18q70 0 103.5 26.5t50.5 94.5z" />
    <glyph glyph-name="lslash" unicode="&#x142;" horiz-adv-x="721" 
d="M631 338q-103 -197 -197 -285t-201 -88q-81 0 -127.5 50t-46.5 139q0 42 13.5 106.5t56.5 220.5l47 164l-272 -151l37 131l272 151l113 402q15 54 22.5 91t7.5 54q0 38 -36.5 57t-110.5 19h-76l31 112q119 2 233.5 9t225.5 20l-187 -653l275 151l-37 -131l-273 -151
l-75 -269q-38 -136 -54 -204t-16 -93q0 -30 15.5 -47.5t41.5 -17.5q42 0 90.5 51.5t110.5 161.5h117z" />
    <glyph glyph-name="OE" unicode="&#x152;" horiz-adv-x="2294" 
d="M1466 133q207 0 305 77t162 282h152l-168 -492h-1114q-191 0 -299.5 31.5t-194.5 105.5q-97 85 -147.5 203.5t-50.5 261.5q0 205 95.5 388.5t272.5 318.5q113 85 251 125.5t323 40.5h145h993l-71 -478h-133q0 23 2 62q2 58 2 74q0 117 -44.5 162.5t-156.5 45.5h-141
q-125 0 -164 -25t-58 -95l-96 -375h92q129 0 179 43.5t73 165.5h140l-162 -631h-140q12 55 17.5 98.5t5.5 75.5q0 64 -31 89.5t-116 25.5h-93l-100 -394q-9 -34 -13.5 -57t-4.5 -39q0 -51 34 -70.5t150 -19.5h104zM967 326l215 825v2q18 68 18 90q0 50 -44 74t-134 24
q-110 0 -198 -27t-154 -81q-132 -105 -214.5 -296.5t-82.5 -395.5q0 -194 101.5 -305t277.5 -111q97 0 139.5 36t75.5 165z" />
    <glyph glyph-name="oe" unicode="&#x153;" horiz-adv-x="1956" 
d="M1071 893q103 130 216 196t233 66q132 0 213.5 -68t81.5 -180q0 -172 -189.5 -279.5t-535.5 -129.5q-12 -48 -17.5 -85.5t-5.5 -68.5q0 -111 67 -181.5t171 -70.5t199 66t177 196l119 -4q-102 -194 -233 -289.5t-295 -95.5q-109 0 -198 48t-163 147q-108 -99 -215.5 -147
t-222.5 -48q-196 0 -317 131.5t-121 345.5q0 163 56.5 303.5t164.5 243.5q85 82 188 124t220 42q132 0 229.5 -62.5t177.5 -199.5zM1108 598q235 15 368.5 94t133.5 201q0 68 -37.5 107.5t-102.5 39.5q-110 0 -205 -115.5t-157 -326.5zM504 76q82 0 152 48.5t128 147.5
q56 93 87.5 216.5t31.5 246.5q0 153 -59 229t-178 76q-170 0 -288 -180.5t-118 -451.5q0 -160 63.5 -246t180.5 -86z" />
    <glyph glyph-name="Scedilla" unicode="&#x15e;" horiz-adv-x="1421" 
d="M188 -39h-120l118 600h127v-4q0 -205 108.5 -333t278.5 -128q108 0 178 68t70 172q0 75 -45 141t-160 150q-36 27 -106 75q-155 107 -209 168q-54 63 -80 125.5t-26 130.5q0 165 116 274t295 109q101 0 224.5 -48t148.5 -48q22 0 41.5 22.5t38.5 71.5h123l-105 -534h-121
q0 6 1 19.5t1 19.5q0 170 -85 268t-232 98q-100 0 -166.5 -55t-66.5 -137q0 -140 244 -300l12 -7q213 -140 295.5 -252t82.5 -246q0 -182 -129.5 -301t-332.5 -119q-68 0 -132 16t-151 58q-13 6 -37 18q-62 31 -90 31q-35 0 -60 -27.5t-49 -95.5zM267 -379l36 90
q60 -38 120 -58t112 -20q56 0 84.5 23t28.5 68q0 41 -27 63.5t-78 22.5q-14 0 -36 -2.5t-62 -8.5l65 201h66l-37 -115q11 2 24 3t37 1q90 0 139.5 -43.5t49.5 -121.5q0 -85 -59 -132t-166 -47q-57 0 -130 19t-167 57z" />
    <glyph glyph-name="scedilla" unicode="&#x15f;" horiz-adv-x="979" 
d="M350 -35q-160 0 -265 83.5t-105 207.5q0 73 35 116.5t94 43.5q51 0 82.5 -29t31.5 -76q0 -46 -36.5 -85t-36.5 -48q0 -34 60 -65t140 -31q106 0 169 49t63 131q0 90 -169 218q-23 17 -34 26q-140 107 -190 179.5t-50 156.5q0 133 102.5 221t260.5 88q147 0 246.5 -76
t99.5 -184q0 -66 -38.5 -108t-98.5 -42q-50 0 -80.5 27t-30.5 70q0 47 42 85t42 54q0 23 -53 49.5t-117 26.5q-83 0 -140 -45.5t-57 -110.5q0 -45 31 -88t111 -102l22 -17q287 -216 287 -379q0 -145 -120 -245.5t-298 -100.5zM45 -379l36 90q60 -38 120 -58t112 -20
q56 0 84.5 23t28.5 68q0 41 -27 63.5t-78 22.5q-14 0 -36 -2.5t-62 -8.5l65 201h66l-37 -115q11 2 24 3t37 1q90 0 139.5 -43.5t49.5 -121.5q0 -85 -59 -132t-166 -47q-57 0 -130 19t-167 57z" />
    <glyph glyph-name="Scaron" unicode="&#x160;" horiz-adv-x="1421" 
d="M188 -39h-120l118 600h127v-4q0 -205 108.5 -333t278.5 -128q108 0 178 68t70 172q0 75 -45 141t-160 150q-36 27 -106 75q-155 107 -209 168q-54 63 -80 125.5t-26 130.5q0 165 116 274t295 109q101 0 224.5 -48t148.5 -48q22 0 41.5 22.5t38.5 71.5h123l-105 -534h-121
q0 6 1 19.5t1 19.5q0 170 -85 268t-232 98q-100 0 -166.5 -55t-66.5 -137q0 -140 244 -300l12 -7q213 -140 295.5 -252t82.5 -246q0 -182 -129.5 -301t-332.5 -119q-68 0 -132 16t-151 58q-13 6 -37 18q-62 31 -90 31q-35 0 -60 -27.5t-49 -95.5zM688 1968h74l166 -195
l251 195h99l-309 -348h-115z" />
    <glyph glyph-name="scaron" unicode="&#x161;" horiz-adv-x="979" 
d="M350 -35q-160 0 -265 83.5t-105 207.5q0 73 35 116.5t94 43.5q51 0 82.5 -29t31.5 -76q0 -46 -36.5 -85t-36.5 -48q0 -34 60 -65t140 -31q106 0 169 49t63 131q0 90 -169 218q-23 17 -34 26q-140 107 -190 179.5t-50 156.5q0 133 102.5 221t260.5 88q147 0 246.5 -76
t99.5 -184q0 -66 -38.5 -108t-98.5 -42q-50 0 -80.5 27t-30.5 70q0 47 42 85t42 54q0 23 -53 49.5t-117 26.5q-83 0 -140 -45.5t-57 -110.5q0 -45 31 -88t111 -102l22 -17q287 -216 287 -379q0 -145 -120 -245.5t-298 -100.5zM358 1612h74l166 -195l251 195h99l-309 -348
h-115z" />
    <glyph glyph-name="Ydieresis" unicode="&#x178;" horiz-adv-x="1440" 
d="M201 0l30 133h39q88 0 129 26.5t60 94.5l86 330l-209 575q-42 109 -87 145.5t-128 36.5h-23l35 134h594l-35 -134h-20q-68 0 -99.5 -18.5t-31.5 -58.5q0 -20 3.5 -40.5t10.5 -39.5l168 -463l315 383q35 42 53.5 79.5t18.5 65.5q0 49 -40.5 70.5t-129.5 21.5l33 134h581
l-32 -134h-6q-58 0 -106 -26.5t-97 -87.5l-541 -662l-65 -246q-10 -36 -14.5 -59.5t-4.5 -36.5q0 -51 35 -71.5t125 -20.5q8 0 25 1t28 1l-35 -133h-665zM1022 1781q0 42 32.5 74.5t73.5 32.5q44 0 76.5 -31.5t32.5 -75.5q0 -47 -31 -77.5t-78 -30.5q-45 0 -75.5 31
t-30.5 77zM669 1781q0 42 32.5 74.5t74.5 32.5q44 0 76 -31.5t32 -75.5q0 -47 -30.5 -77.5t-77.5 -30.5q-46 0 -76.5 31t-30.5 77z" />
    <glyph glyph-name="Zcaron" unicode="&#x17d;" horiz-adv-x="1489" 
d="M16 0v150l1108 1191h-376q-197 0 -292 -70.5t-177 -271.5h-123l135 476h1118v-148l-1108 -1194h381q121 0 195 14.5t120 47.5q46 32 92 106t115 231h127l-153 -532h-1162zM721 1968h74l166 -195l251 195h99l-309 -348h-115z" />
    <glyph glyph-name="zcaron" unicode="&#x17e;" horiz-adv-x="1028" 
d="M97 267q31 13 59.5 19.5t54.5 6.5q63 0 192 -64.5t193 -64.5q71 0 122.5 46t88.5 144h106q-36 -192 -124 -288.5t-226 -96.5q-72 0 -131.5 24t-118.5 77q-22 20 -60 58q-70 73 -108 73q-22 0 -34.5 -12t-12.5 -33q0 -20 27 -60t27 -63q0 -33 -18.5 -50.5t-51.5 -17.5
q-47 0 -69.5 46t-22.5 143q0 157 91 278t263 193q60 25 162.5 54t140.5 44q53 22 90 53t61 73q-20 -4 -40 -6.5t-43 -2.5q-63 0 -184.5 53t-186.5 53t-111.5 -35.5t-72.5 -105.5h-103q32 165 112 253.5t198 88.5q51 0 95.5 -18.5t90.5 -57.5q19 -16 52 -46
q122 -107 167 -107q19 0 28 7.5t9 22.5q0 24 -32 70.5t-32 68.5q0 25 19 41.5t47 16.5q50 0 75 -47.5t25 -143.5q0 -131 -92.5 -241t-269.5 -187q-47 -20 -152.5 -53.5t-156.5 -58.5q-61 -31 -95.5 -66.5t-47.5 -80.5zM383 1612h74l166 -195l251 195h99l-309 -348h-115z" />
    <glyph glyph-name="florin" unicode="&#x192;" horiz-adv-x="1114" 
d="M494 991q30 279 131 421t268 142q89 0 148 -49t59 -123q0 -59 -32 -90.5t-91 -31.5q-50 0 -79.5 24.5t-29.5 67.5q0 22 9.5 49t9.5 33q0 8 -8 12t-23 4q-81 0 -128 -120t-50 -338l227 -1l-12 -110h-221q-34 -708 -138.5 -978t-326.5 -270q-96 0 -153.5 47t-57.5 123
q0 59 34 96.5t87 37.5q51 0 83.5 -29.5t32.5 -75.5q0 -24 -10 -50.5t-10 -29.5q0 -8 11 -14t28 -6q52 0 89 58t58 175q15 84 34 390t44 526h-231l14 110h234z" />
    <glyph glyph-name="circumflex" unicode="&#x2c6;" horiz-adv-x="1024" 
d="M887 1264h-74l-166 194l-252 -194h-96l309 348h113z" />
    <glyph glyph-name="caron" unicode="&#x2c7;" horiz-adv-x="1024" 
d="M381 1612h74l166 -195l251 195h99l-309 -348h-115z" />
    <glyph glyph-name="breve" unicode="&#x2d8;" horiz-adv-x="1024" 
d="M977 1581q-89 -150 -181.5 -218.5t-203.5 -68.5q-112 0 -168 71.5t-57 215.5h61q12 -75 54.5 -110t119.5 -35q93 0 166 34.5t139 110.5h70z" />
    <glyph glyph-name="dotaccent" unicode="&#x2d9;" horiz-adv-x="1024" 
d="M524 1425q0 45 35 80t80 35q47 0 81 -34t34 -81q0 -49 -33 -81.5t-82 -32.5q-47 0 -81 33.5t-34 80.5z" />
    <glyph glyph-name="ring" unicode="&#x2da;" horiz-adv-x="1024" 
d="M502 1491q0 -63 44 -106.5t107 -43.5q62 0 105 43.5t43 106.5t-43 106t-105 43q-63 0 -107 -43t-44 -106zM403 1491q0 104 72 176t176 72q105 0 176.5 -72t71.5 -176q0 -105 -71.5 -176.5t-176.5 -71.5q-104 0 -176 71.5t-72 176.5z" />
    <glyph glyph-name="ogonek" unicode="&#x2db;" horiz-adv-x="1024" 
d="M455 35q-84 -65 -129 -131.5t-45 -124.5q0 -60 23.5 -92.5t66.5 -32.5q36 0 65 17t58 55l30 -17q-36 -75 -93 -115t-126 -40q-72 0 -115 41t-43 110q0 84 64 165t197 165h47z" />
    <glyph glyph-name="tilde" unicode="&#x2dc;" horiz-adv-x="1024" 
d="M938 1540q-20 -99 -68.5 -151t-121.5 -52q-17 0 -35.5 3t-42.5 10l-131 32q-24 6 -38 8.5t-22 2.5q-33 0 -52.5 -19.5t-27.5 -58.5h-61q14 99 59.5 150t120.5 51q15 -1 31 -3t41 -8l128 -34q22 -6 36 -8.5t22 -2.5q42 0 65.5 18.5t35.5 61.5h61z" />
    <glyph glyph-name="hungarumlaut" unicode="&#x2dd;" horiz-adv-x="1024" 
d="M866 1540q34 48 58 65t51 17q31 0 53.5 -22.5t22.5 -53.5q0 -19 -14.5 -39.5t-47.5 -48.5l-239 -194h-78zM557 1530q28 51 52.5 71.5t54.5 20.5t51.5 -21.5t21.5 -52.5q0 -19 -11.5 -39.5t-37.5 -46.5l-203 -198h-71z" />
    <glyph glyph-name="Omega" unicode="&#x3a9;" horiz-adv-x="1569" 
d="M1112 231v-26h311l60 184h61l-117 -389h-505q120 216 181.5 435t61.5 427q0 277 -95.5 418t-283.5 141q-189 0 -284.5 -140t-95.5 -419q0 -209 61 -426t182 -436h-506l-116 389h61l59 -184h312v26q-165 183 -237 335t-72 311q0 267 183 443.5t453 176.5t452.5 -177
t182.5 -443q0 -158 -71.5 -309t-237.5 -337z" />
    <glyph glyph-name="pi" unicode="&#x3c0;" horiz-adv-x="1389" 
d="M1370 885l-43 -199h-340q-33 -137 -37 -401q-1 -58 -2 -87q-3 -125 -32.5 -183t-90.5 -58q-42 0 -64 28t-22 83q0 58 77 259t114 359h-387q-35 -142 -40 -414q-1 -49 -1 -73q-4 -127 -33 -184.5t-90 -57.5q-42 0 -63 28t-21 83q0 59 76 260t112 358h-188
q-91 0 -135.5 -41.5t-67.5 -152.5h-57q40 218 124 305.5t251 87.5h960z" />
    <glyph glyph-name="endash" unicode="&#x2013;" horiz-adv-x="1024" 
d="M969 633l-54 -133h-970l55 133h969z" />
    <glyph glyph-name="emdash" unicode="&#x2014;" horiz-adv-x="2048" 
d="M-90 500l55 133h2048l-55 -133h-2048z" />
    <glyph glyph-name="quoteleft" unicode="&#x2018;" horiz-adv-x="557" 
d="M301 1172q15 3 27.5 4.5t23.5 1.5q57 0 88 -33t31 -94q0 -65 -40.5 -105.5t-104.5 -40.5q-70 0 -111 49.5t-41 132.5q0 135 103 246.5t286 173.5v-82q-110 -52 -173.5 -114t-88.5 -139z" />
    <glyph glyph-name="quoteright" unicode="&#x2019;" horiz-adv-x="557" 
d="M434 1241q-13 -3 -25.5 -4.5t-23.5 -1.5q-57 0 -88 33.5t-31 95.5q0 64 40.5 103.5t105.5 39.5q69 0 110 -49t41 -133q0 -134 -103.5 -245.5t-287.5 -174.5v84q112 54 175 114.5t87 137.5z" />
    <glyph glyph-name="quotesinglbase" unicode="&#x201a;" horiz-adv-x="557" 
d="M206 -35q-13 -3 -26 -4.5t-24 -1.5q-57 0 -88 33t-31 94q0 65 40.5 105t104.5 40q70 0 111 -49t41 -133q0 -134 -103 -245.5t-286 -174.5v82q108 52 173.5 115.5t87.5 138.5z" />
    <glyph glyph-name="quotedblleft" unicode="&#x201c;" horiz-adv-x="1042" 
d="M783 1172q14 3 26 4.5t22 1.5q57 0 88 -34t31 -95q0 -65 -40 -104.5t-105 -39.5q-70 0 -111 49.5t-41 132.5q0 135 103.5 246t287.5 174v-84q-112 -53 -174.5 -114t-86.5 -137zM322 1172q14 3 26 4.5t23 1.5q56 0 87 -34t31 -95q0 -65 -40 -104.5t-105 -39.5
q-69 0 -110 49.5t-41 132.5q0 135 103 246t288 174v-84q-112 -53 -175 -114t-87 -137z" />
    <glyph glyph-name="quotedblright" unicode="&#x201d;" horiz-adv-x="1042" 
d="M895 1241q-14 -3 -26 -4.5t-23 -1.5q-57 0 -88 33.5t-31 95.5q0 64 40.5 103.5t104.5 39.5q70 0 111 -49t41 -133q0 -134 -103.5 -245.5t-287.5 -174.5v84q112 54 175 114.5t87 137.5zM434 1241q-13 -3 -25.5 -4.5t-23.5 -1.5q-57 0 -88 33.5t-31 95.5q0 64 40.5 103.5
t105.5 39.5q69 0 110 -49t41 -133q0 -134 -103.5 -245.5t-287.5 -174.5v84q112 54 175 114.5t87 137.5z" />
    <glyph glyph-name="quotedblbase" unicode="&#x201e;" horiz-adv-x="1042" 
d="M231 -35q-14 -3 -26.5 -4.5t-24.5 -1.5q-57 0 -88 33t-31 94q0 65 41 105t105 40q69 0 110 -49t41 -133q0 -134 -102.5 -245.5t-286.5 -174.5v82q109 52 174 115.5t88 138.5zM692 -35q-14 -3 -26.5 -4.5t-24.5 -1.5q-57 0 -88 33t-31 94q0 65 40.5 105t105.5 40
q69 0 110 -49t41 -133q0 -134 -102.5 -245.5t-286.5 -174.5v82q109 52 174 115.5t88 138.5z" />
    <glyph glyph-name="dagger" unicode="&#x2020;" horiz-adv-x="1024" 
d="M268 -215q49 254 74 453.5t25 336.5q0 35 -0.5 51t-1.5 30q67 78 110 166.5t59 185.5q-64 -2 -148.5 -40t-117.5 -38q-53 0 -83.5 28t-30.5 76q0 49 27 77t75 28q42 0 135.5 -35.5t152.5 -42.5q8 39 11.5 74.5t3.5 70.5q0 49 -9 116t-9 87q0 46 27 73t73 27
q58 0 88.5 -23t30.5 -67q0 -42 -68.5 -153.5t-84.5 -204.5q70 4 160 41t118 37q49 0 78.5 -28.5t29.5 -76.5t-26 -76t-70 -28q-28 0 -125.5 39t-177.5 39q-4 -39 -6 -76.5t-2 -75.5q0 -67 9 -114.5t28 -84.5q-81 -160 -150.5 -366.5t-140.5 -505.5h-64z" />
    <glyph glyph-name="daggerdbl" unicode="&#x2021;" horiz-adv-x="1024" 
d="M360 655q68 79 111 167.5t59 184.5q-64 -1 -148.5 -39t-117.5 -38q-53 0 -83.5 28t-30.5 76q0 49 27 77t75 28q42 0 136.5 -35.5t153.5 -42.5q8 39 11.5 75t3.5 70q0 49 -10 116t-10 87q0 46 27 73t73 27q57 0 88 -23t31 -67q0 -42 -68.5 -153.5t-84.5 -204.5
q70 4 160 41t118 37q49 0 78.5 -28.5t29.5 -76.5t-26 -76t-70 -28q-28 0 -125.5 39t-177.5 39q-4 -39 -6 -76.5t-2 -75.5q0 -64 9.5 -112t29.5 -87q-74 -98 -116.5 -187.5t-55.5 -174.5q63 2 147.5 41t118.5 39q53 0 83.5 -28t30.5 -77t-27 -76.5t-75 -27.5
q-41 0 -135.5 34.5t-155.5 40.5q-7 -37 -10.5 -72.5t-3.5 -70.5q0 -49 10 -117t10 -87q0 -47 -27 -74t-73 -27q-57 0 -88 24t-31 68q0 43 68.5 154t85.5 204q-72 -4 -161.5 -40.5t-117.5 -36.5q-49 0 -78.5 27.5t-29.5 74.5q0 49 26 78t70 29q28 0 125.5 -39t177.5 -39
q4 39 6 76t2 71q0 58 -9 109.5t-28 101.5z" />
    <glyph glyph-name="bullet" unicode="&#x2022;" horiz-adv-x="1208" 
d="M307 762q0 123 87 209t210 86q122 0 208.5 -86.5t86.5 -208.5t-87.5 -209.5t-209.5 -87.5q-123 0 -209 87t-86 210z" />
    <glyph glyph-name="ellipsis" unicode="&#x2026;" horiz-adv-x="2048" 
d="M96 100q0 59 40.5 99.5t98.5 40.5t97.5 -40.5t39.5 -99.5q0 -58 -40 -98.5t-97 -40.5t-98 41t-41 98zM778 100q0 59 40.5 99.5t98.5 40.5t97.5 -40.5t39.5 -99.5q0 -58 -40 -98.5t-97 -40.5t-98 41t-41 98zM1463 100q0 59 40.5 99.5t98.5 40.5t97.5 -40.5t39.5 -99.5
q0 -58 -40 -98.5t-97 -40.5t-98 41t-41 98z" />
    <glyph glyph-name="perthousand" unicode="&#x2030;" horiz-adv-x="2701" 
d="M1712 532q0 85 -38 136t-99 51q-57 0 -119.5 -58.5t-118.5 -164.5q-43 -81 -67.5 -167.5t-24.5 -152.5q0 -64 34.5 -99.5t94.5 -35.5q56 0 112.5 35.5t104.5 101.5q56 75 88.5 171t32.5 183zM1782 524q0 -85 -22 -162.5t-68 -154.5q-72 -121 -162.5 -183.5t-192.5 -62.5
q-122 0 -198 83t-76 218q0 99 39 196.5t110 176.5q72 79 154 121.5t164 42.5q123 0 187.5 -70.5t64.5 -204.5zM737 1298q-40 24 -79 50.5t-76 56.5q-75 -34 -136 -108.5t-110 -190.5q-28 -64 -44 -130t-16 -118q0 -63 35.5 -99t96.5 -36q66 0 132 51.5t119 145.5
q41 69 62.5 146.5t21.5 154.5q0 20 -1.5 38.5t-4.5 38.5zM1341 1522h97l-875 -1579h-121l772 1392q-64 -42 -128 -65t-121 -23q-38 0 -75.5 7t-78.5 21q1 -8 1.5 -20.5t0.5 -35.5q0 -87 -23 -171t-69 -161q-70 -120 -161 -183t-193 -63q-124 0 -200.5 82.5t-76.5 216.5
q0 97 40 195t112 178q73 79 153.5 121.5t157.5 42.5q71 0 126 -26.5t122 -94.5q46 -18 84.5 -26.5t70.5 -8.5q103 0 203.5 52.5t181.5 148.5zM2540 532q0 85 -38 136t-100 51q-57 0 -119.5 -58.5t-117.5 -164.5q-43 -81 -67.5 -167.5t-24.5 -152.5q0 -64 34 -99.5t95 -35.5
q55 0 110.5 35t104.5 102q56 76 89.5 172t33.5 182zM2609 524q0 -85 -22 -162.5t-68 -154.5q-72 -121 -162 -183.5t-192 -62.5q-123 0 -200 83t-77 218q0 98 39.5 195.5t112.5 177.5q72 79 153.5 121.5t163.5 42.5q123 0 187.5 -70.5t64.5 -204.5z" />
    <glyph glyph-name="guilsinglleft" unicode="&#x2039;" horiz-adv-x="616" 
d="M70 582q149 106 280 222t135 116q11 0 17 -6t6 -17q0 -38 -65 -130t-175 -206q60 -118 96.5 -218t36.5 -136q0 -15 -6.5 -23t-17.5 -8q-13 0 -106 139.5t-201 266.5z" />
    <glyph glyph-name="guilsinglright" unicode="&#x203a;" horiz-adv-x="616" 
d="M424 512q-149 -106 -280 -221t-136 -115q-11 0 -16.5 6t-5.5 17q0 38 65 130t174 206q-59 118 -96 218t-37 136q0 14 7.5 22.5t19.5 8.5t104 -140t201 -268z" />
    <glyph glyph-name="franc" unicode="&#x20a3;" horiz-adv-x="2398" 
d="M0 0l33 133h18q69 0 103 26.5t51 94.5l235 901q6 24 9.5 49.5t3.5 50.5q0 47 -37 66.5t-127 19.5h-19l33 134h1180l-70 -478h-135q1 24 2 62q2 58 2 74q0 117 -44.5 162.5t-156.5 45.5h-174q-125 0 -163.5 -25t-57.5 -95l-96 -375h92q129 0 178.5 43.5t73.5 165.5h139
l-162 -631h-139q11 55 17 98.5t6 75.5q0 64 -31 89.5t-117 25.5h-92l-100 -394q-10 -35 -14.5 -58t-4.5 -38q0 -50 34 -70t124 -20h35l-39 -133h-590zM1908 852q84 157 161 229t161 72q70 0 110.5 -44t40.5 -120q0 -63 -37.5 -103t-97.5 -40q-51 0 -81.5 24.5t-30.5 65.5
q0 1 1 5.5t1 8.5q-1 13 -3 16.5t-10 4.5q-88 0 -211.5 -272t-218.5 -699h-205l154 502q57 186 78.5 272.5t21.5 124.5q0 29 -12.5 48.5t-30.5 19.5q-49 0 -98 -44.5t-115 -150.5h-112q86 169 189.5 263.5t199.5 94.5q75 0 115.5 -47t40.5 -135q0 -13 -2.5 -33t-8.5 -63z" />
    <glyph glyph-name="trademark" unicode="&#x2122;" horiz-adv-x="1683" 
d="M780 1442h191l137 -391l143 391h181v-25l-30 -2q-21 -2 -31.5 -15t-10.5 -38v-375q0 -25 10.5 -38t31.5 -15l30 -2v-29h-240v29l31 2q21 2 32 15.5t11 37.5v387l-172 -473h-21l-172 475v-389q0 -24 11 -37.5t32 -15.5l33 -2v-29h-197v29l34 2q20 2 31 15.5t11 37.5v371
q0 24 -11 37.5t-31 15.5l-34 4v27zM250 1442h444l11 -182h-27q-8 78 -40.5 114.5t-94.5 36.5h-17v-424q0 -24 10.5 -37.5t30.5 -15.5l33 -2v-29h-254v29l31 2q21 2 32 15.5t11 37.5v424h-17q-64 0 -96.5 -36t-40.5 -115h-26z" />
    <glyph glyph-name="partialdiff" unicode="&#x2202;" horiz-adv-x="1059" 
d="M756 621q15 87 22.5 168.5t7.5 156.5q0 129 -36.5 194.5t-108.5 65.5q-55 0 -127 -58t-108 -58t-60 22t-24 53q0 62 72 111t173 49q180 0 287 -155t107 -418q0 -335 -144.5 -556t-357.5 -221q-152 0 -253.5 108t-101.5 271q0 198 110.5 326.5t272.5 128.5
q101 0 166 -45.5t103 -142.5zM707 494q0 116 -43.5 178.5t-122.5 62.5q-109 0 -179.5 -129t-70.5 -336q0 -116 43 -177.5t123 -61.5q109 0 179.5 130t70.5 333z" />
    <glyph glyph-name="Delta" unicode="&#x2206;" horiz-adv-x="1350" 
d="M602 1174l-389 -957h768zM666 1497h30l600 -1497h-1243z" />
    <glyph glyph-name="product" unicode="&#x220f;" horiz-adv-x="1630" 
d="M53 1473h1522v-74h-191v-1718h191v-74h-596v74h192v1718h-714v-1718h192v-74h-596v74h191v1718h-191v74z" />
    <glyph glyph-name="summation" unicode="&#x2211;" horiz-adv-x="1462" 
d="M16 1473h1162l110 -365h-78l-73 227q-11 34 -41.5 49t-98.5 15h-690l809 -832v-37l-825 -735h887q61 0 79 13t29 51l72 229h78l-148 -481h-1272v41l920 815l-920 956v54z" />
    <glyph glyph-name="minus" unicode="&#x2212;" 
d="M254 682h1198v-141h-1198v141z" />
    <glyph glyph-name="fraction" unicode="&#x2215;" horiz-adv-x="342" 
d="M-342 -47l903 1554h121l-901 -1554h-123z" />
    <glyph glyph-name="periodcentered" unicode="&#x2219;" horiz-adv-x="557" 
d="M145 735q0 59 39.5 98t98.5 39q58 0 98.5 -39.5t40.5 -97.5t-41 -98.5t-98 -40.5t-97.5 40.5t-40.5 98.5z" />
    <glyph glyph-name="radical" unicode="&#x221a;" horiz-adv-x="1305" 
d="M1116 1661h189v-96h-115l-594 -1606h-66l-319 883l-125 -45l-25 80l283 98l256 -709z" />
    <glyph glyph-name="infinity" unicode="&#x221e;" 
d="M915 559q50 -89 116.5 -133.5t150.5 -44.5q101 0 165 67.5t64 172.5q0 101 -59 168t-148 67q-81 0 -146.5 -66.5t-142.5 -230.5zM793 666q-49 88 -115.5 132t-151.5 44q-101 0 -165 -66.5t-64 -171.5q0 -101 59 -168t148 -67q81 0 146.5 66t142.5 231zM864 483
q-71 -136 -148.5 -199t-172.5 -63q-135 0 -228.5 112t-93.5 277q0 175 83.5 283t217.5 108q95 0 170 -61.5t150 -202.5q68 138 147 203.5t176 65.5q133 0 227.5 -113t94.5 -279q0 -174 -83.5 -281.5t-217.5 -107.5q-95 0 -168.5 58.5t-153.5 199.5z" />
    <glyph glyph-name="integral" unicode="&#x222b;" horiz-adv-x="1067" 
d="M311 -262q106 0 120 688q2 108 3 165q12 515 107 737t297 222q80 0 130 -42t50 -107q0 -54 -32 -85.5t-87 -31.5q-42 0 -70 19t-40 54q-6 15 -10.5 51t-20.5 36q-107 0 -121 -619q-4 -193 -8 -303q-17 -479 -111.5 -686t-290.5 -207q-79 0 -129.5 41.5t-50.5 106.5
q0 56 34 87.5t95 31.5q33 0 57 -14.5t39 -42.5q10 -18 15 -59.5t24 -41.5z" />
    <glyph glyph-name="approxequal" unicode="&#x2248;" 
d="M1530 586v-156q-105 -73 -199.5 -107t-189.5 -34t-285 67.5t-293 67.5q-82 0 -171.5 -36t-213.5 -122v156q108 73 204 109t183 36q115 0 305 -68.5t273 -68.5q88 0 177 35.5t210 120.5zM1530 954v-155q-105 -73 -199.5 -107.5t-189.5 -34.5t-285 68t-293 68
q-83 0 -171.5 -36t-213.5 -122v156q106 72 202 107.5t185 35.5q116 0 305.5 -67.5t272.5 -67.5q87 0 175 34.5t212 120.5z" />
    <glyph glyph-name="notequal" unicode="&#x2260;" 
d="M1208 1194l105 -82l-187 -235h326v-136h-416l-205 -262h621v-135h-709l-249 -317l-105 84l184 233h-319v135h408l204 262h-612v136h702z" />
    <glyph glyph-name="lessequal" unicode="&#x2264;" 
d="M262 162h1184v-139h-1184v139zM1444 1206v-147l-936 -309l936 -306v-149l-1182 395v121z" />
    <glyph glyph-name="greaterequal" unicode="&#x2265;" 
d="M262 162h1184v-139h-1184v139zM262 1206l1184 -395v-121l-1184 -395v149l938 306l-938 309v147z" />
    <glyph glyph-name="lozenge" unicode="&#x25ca;" horiz-adv-x="1012" 
d="M506 1409l-385 -817l385 -825l385 825zM506 1653l500 -1061l-500 -1069l-500 1069z" />
    <glyph glyph-name="apple" unicode="&#xf000;" horiz-adv-x="1618" 
d="M836 1216q-1 6 -1.5 14t-0.5 23q0 124 95 229.5t236 131.5q1 -10 1.5 -23t0.5 -39q0 -131 -103.5 -234.5t-203.5 -103.5h-8q-3 0 -7.5 1t-8.5 1zM1505 403q-114 -247 -205 -342.5t-204 -95.5q-50 0 -131.5 33t-122.5 33q-45 0 -131 -33t-127 -33q-64 0 -128.5 44
t-129.5 132q-102 140 -157.5 295.5t-55.5 300.5q0 219 125 356.5t323 137.5q68 0 155 -34t124 -34q34 0 121.5 35t152.5 35q110 0 198 -40t161 -124q-102 -65 -151.5 -145.5t-49.5 -182.5q0 -113 60 -200t173 -138z" />
    <glyph glyph-name="fi" unicode="&#xf001;" horiz-adv-x="1370" 
d="M522 1118h588l-205 -829q-10 -40 -13 -58.5t-3 -31.5q0 -33 16 -53.5t41 -20.5q42 0 91.5 51.5t101.5 149.5h112q-80 -179 -177 -270t-206 -91q-81 0 -127.5 49.5t-46.5 137.5q0 30 5.5 65t17.5 80l160 652q1 3 1.5 6.5t0.5 9.5q0 23 -19 34t-57 11h-305l-193 -809
q-74 -313 -178 -451.5t-262 -138.5q-99 0 -162 49t-63 123q0 54 30.5 88.5t77.5 34.5q54 0 84.5 -25.5t30.5 -70.5q0 -35 -27 -67q-6 -8 -6 -9q0 -4 16.5 -8.5t38.5 -4.5q70 0 122.5 107.5t117.5 396.5l174 785h-213l31 108h211q47 208 179 319t331 111q151 0 232 -48
t81 -138q0 -53 -33 -85t-88 -32q-52 0 -83.5 23t-31.5 61q0 29 19.5 57t19.5 29q0 18 -29.5 32.5t-72.5 14.5q-122 0 -203.5 -85t-126.5 -259z" />
    <glyph glyph-name="fl" unicode="&#xf002;" horiz-adv-x="1370" 
d="M950 1249q9 36 14 68.5t5 52.5q0 40 -33 64t-88 24q-119 0 -202.5 -87t-123.5 -253h393zM305 201q-75 -314 -179 -452t-263 -138q-98 0 -160.5 49t-62.5 123q0 54 30.5 88.5t77.5 34.5q54 0 84.5 -25.5t30.5 -70.5q0 -35 -27 -67q-6 -8 -6 -9q0 -4 16.5 -8.5t38.5 -4.5
q70 0 122.5 107.5t117.5 396.5l174 785h-213l31 108h211q47 207 178.5 318.5t327.5 111.5q64 0 117 -9t102 -28l157 37l-305 -1260q-9 -34 -12.5 -54t-3.5 -35q0 -33 16 -53.5t41 -20.5q45 0 94.5 51.5t98.5 149.5h112q-81 -181 -177 -271t-206 -90q-81 0 -127.5 49.5
t-46.5 137.5q0 26 5.5 61t17.5 84l170 713h-389z" />
    </font>
</defs>
</svg>
